<?xml version="1.0" encoding="utf-8" standalone="no"?>
<!DOCTYPE svg PUBLIC "-//W3C//DTD SVG 1.1//EN"
  "http://www.w3.org/Graphics/SVG/1.1/DTD/svg11.dtd">
<svg xmlns:xlink="http://www.w3.org/1999/xlink" width="1152pt" height="576pt" viewBox="0 0 1152 576" xmlns="http://www.w3.org/2000/svg" version="1.1">
 <metadata>
  <rdf:RDF xmlns:dc="http://purl.org/dc/elements/1.1/" xmlns:cc="http://creativecommons.org/ns#" xmlns:rdf="http://www.w3.org/1999/02/22-rdf-syntax-ns#">
   <cc:Work>
    <dc:type rdf:resource="http://purl.org/dc/dcmitype/StillImage"/>
    <dc:date>2023-05-04T07:40:05.247823</dc:date>
    <dc:format>image/svg+xml</dc:format>
    <dc:creator>
     <cc:Agent>
      <dc:title>Matplotlib v3.7.1, https://matplotlib.org/</dc:title>
     </cc:Agent>
    </dc:creator>
   </cc:Work>
  </rdf:RDF>
 </metadata>
 <defs>
  <style type="text/css">*{stroke-linejoin: round; stroke-linecap: butt}</style>
 </defs>
 <g id="figure_1">
  <g id="patch_1">
   <path d="M 0 576 
L 1152 576 
L 1152 0 
L 0 0 
z
" style="fill: #ffffff"/>
  </g>
  <g id="axes_1">
   <g id="patch_2">
    <path d="M 144 512.64 
L 1036.8 512.64 
L 1036.8 69.12 
L 144 69.12 
z
" style="fill: #ffffff"/>
   </g>
   <g id="PolyCollection_1">
    <path d="M -1864.8 3188.544 
L -1864.8 3188.544 
L -1860.331532 3183.537073 
L -1855.863063 3178.530146 
L -1851.394595 3173.523219 
L -1846.926126 3168.516292 
L -1842.457658 3163.509365 
L -1837.989189 3158.502438 
L -1833.520721 3153.495512 
L -1829.052252 3148.488585 
L -1824.583784 3143.481658 
L -1820.115315 3138.474731 
L -1815.646847 3133.467804 
L -1811.178378 3128.460877 
L -1806.70991 3123.45395 
L -1802.241441 3118.447023 
L -1797.772973 3113.440096 
L -1793.304505 3108.433169 
L -1788.836036 3103.426242 
L -1784.367568 3098.419315 
L -1779.899099 3093.412388 
L -1775.430631 3088.405461 
L -1770.962162 3083.398535 
L -1766.493694 3078.391608 
L -1762.025225 3073.384681 
L -1757.556757 3068.377754 
L -1753.088288 3063.370827 
L -1748.61982 3058.3639 
L -1744.151351 3053.356973 
L -1739.682883 3048.350046 
L -1735.214414 3043.343119 
L -1730.745946 3038.336192 
L -1726.277477 3033.329265 
L -1721.809009 3028.322338 
L -1717.340541 3023.315411 
L -1712.872072 3018.308484 
L -1708.403604 3013.301558 
L -1703.935135 3008.294631 
L -1699.466667 3003.287704 
L -1694.998198 2998.280777 
L -1690.52973 2993.27385 
L -1686.061261 2988.266923 
L -1681.592793 2983.259996 
L -1677.124324 2978.253069 
L -1672.655856 2973.246142 
L -1668.187387 2968.239215 
L -1663.718919 2963.232288 
L -1659.25045 2958.225361 
L -1654.781982 2953.218434 
L -1650.313514 2948.211508 
L -1645.845045 2943.204581 
L -1641.376577 2938.197654 
L -1636.908108 2933.190727 
L -1632.43964 2928.1838 
L -1627.971171 2923.176873 
L -1623.502703 2918.169946 
L -1619.034234 2913.163019 
L -1614.565766 2908.156092 
L -1610.097297 2903.149165 
L -1605.628829 2898.142238 
L -1601.16036 2893.135311 
L -1596.691892 2888.128384 
L -1592.223423 2883.121457 
L -1587.754955 2878.114531 
L -1583.286486 2873.107604 
L -1578.818018 2868.100677 
L -1574.34955 2863.09375 
L -1569.881081 2858.086823 
L -1565.412613 2853.079896 
L -1560.944144 2848.072969 
L -1556.475676 2843.066042 
L -1552.007207 2838.059115 
L -1547.538739 2833.052188 
L -1543.07027 2828.045261 
L -1538.601802 2823.038334 
L -1534.133333 2818.031407 
L -1529.664865 2813.02448 
L -1525.196396 2808.017554 
L -1520.727928 2803.010627 
L -1516.259459 2798.0037 
L -1511.790991 2792.996773 
L -1507.322523 2787.989846 
L -1502.854054 2782.982919 
L -1498.385586 2777.975992 
L -1493.917117 2772.969065 
L -1489.448649 2767.962138 
L -1484.98018 2762.955211 
L -1480.511712 2757.948284 
L -1476.043243 2752.941357 
L -1471.574775 2747.93443 
L -1467.106306 2742.927504 
L -1462.637838 2737.920577 
L -1458.169369 2732.91365 
L -1453.700901 2727.906723 
L -1449.232432 2722.899796 
L -1444.763964 2717.892869 
L -1440.295495 2712.885942 
L -1435.827027 2707.879015 
L -1431.358559 2702.872088 
L -1426.89009 2697.865161 
L -1422.421622 2692.858234 
L -1417.953153 2687.851307 
L -1413.484685 2682.84438 
L -1409.016216 2677.837453 
L -1404.547748 2672.830527 
L -1400.079279 2667.8236 
L -1395.610811 2662.816673 
L -1391.142342 2657.809746 
L -1386.673874 2652.802819 
L -1382.205405 2647.795892 
L -1377.736937 2642.788965 
L -1373.268468 2637.782038 
L -1368.8 2632.775111 
L -1364.331532 2627.768184 
L -1359.863063 2622.761257 
L -1355.394595 2617.75433 
L -1350.926126 2612.747403 
L -1346.457658 2607.740476 
L -1341.989189 2602.73355 
L -1337.520721 2597.726623 
L -1333.052252 2592.719696 
L -1328.583784 2587.712769 
L -1324.115315 2582.705842 
L -1319.646847 2577.698915 
L -1315.178378 2572.691988 
L -1310.70991 2567.685061 
L -1306.241441 2562.678134 
L -1301.772973 2557.671207 
L -1297.304505 2552.66428 
L -1292.836036 2547.657353 
L -1288.367568 2542.650426 
L -1283.899099 2537.643499 
L -1279.430631 2532.636573 
L -1274.962162 2527.629646 
L -1270.493694 2522.622719 
L -1266.025225 2517.615792 
L -1261.556757 2512.608865 
L -1257.088288 2507.601938 
L -1252.61982 2502.595011 
L -1248.151351 2497.588084 
L -1243.682883 2492.581157 
L -1239.214414 2487.57423 
L -1234.745946 2482.567303 
L -1230.277477 2477.560376 
L -1225.809009 2472.553449 
L -1221.340541 2467.546523 
L -1216.872072 2462.539596 
L -1212.403604 2457.532669 
L -1207.935135 2452.525742 
L -1203.466667 2447.518815 
L -1198.998198 2442.511888 
L -1194.52973 2437.504961 
L -1190.061261 2432.498034 
L -1185.592793 2427.491107 
L -1181.124324 2422.48418 
L -1176.655856 2417.477253 
L -1172.187387 2412.470326 
L -1167.718919 2407.463399 
L -1163.25045 2402.456472 
L -1158.781982 2397.449546 
L -1154.313514 2392.442619 
L -1149.845045 2387.435692 
L -1145.376577 2382.428765 
L -1140.908108 2377.421838 
L -1136.43964 2372.414911 
L -1131.971171 2367.407984 
L -1127.502703 2362.401057 
L -1123.034234 2357.39413 
L -1118.565766 2352.387203 
L -1114.097297 2347.380276 
L -1109.628829 2342.373349 
L -1105.16036 2337.366422 
L -1100.691892 2332.359495 
L -1096.223423 2327.352569 
L -1091.754955 2322.345642 
L -1087.286486 2317.338715 
L -1082.818018 2312.331788 
L -1078.34955 2307.324861 
L -1073.881081 2302.317934 
L -1069.412613 2297.311007 
L -1064.944144 2292.30408 
L -1060.475676 2287.297153 
L -1056.007207 2282.290226 
L -1051.538739 2277.283299 
L -1047.07027 2272.276372 
L -1042.601802 2267.269445 
L -1038.133333 2262.262519 
L -1033.664865 2257.255592 
L -1029.196396 2252.248665 
L -1024.727928 2247.241738 
L -1020.259459 2242.234811 
L -1015.790991 2237.227884 
L -1011.322523 2232.220957 
L -1006.854054 2227.21403 
L -1002.385586 2222.207103 
L -997.917117 2217.200176 
L -993.448649 2212.193249 
L -988.98018 2207.186322 
L -984.511712 2202.179395 
L -980.043243 2197.172468 
L -975.574775 2192.165542 
L -971.106306 2187.158615 
L -966.637838 2182.151688 
L -962.169369 2177.144761 
L -957.700901 2172.137834 
L -953.232432 2167.130907 
L -948.763964 2162.12398 
L -944.295495 2157.117053 
L -939.827027 2152.110126 
L -935.358559 2147.103199 
L -930.89009 2142.096272 
L -926.421622 2137.089345 
L -921.953153 2132.082418 
L -917.484685 2127.075491 
L -913.016216 2122.068565 
L -908.547748 2117.061638 
L -904.079279 2112.054711 
L -899.610811 2107.047784 
L -895.142342 2102.040857 
L -890.673874 2097.03393 
L -886.205405 2092.027003 
L -881.736937 2087.020076 
L -877.268468 2082.013149 
L -872.8 2077.006222 
L -868.331532 2071.999295 
L -863.863063 2066.992368 
L -859.394595 2061.985441 
L -854.926126 2056.978515 
L -850.457658 2051.971588 
L -845.989189 2046.964661 
L -841.520721 2041.957734 
L -837.052252 2036.950807 
L -832.583784 2031.94388 
L -828.115315 2026.936953 
L -823.646847 2021.930026 
L -819.178378 2016.923099 
L -814.70991 2011.916172 
L -810.241441 2006.909245 
L -805.772973 2001.902318 
L -801.304505 1996.895391 
L -796.836036 1991.888464 
L -792.367568 1986.881538 
L -787.899099 1981.874611 
L -783.430631 1976.867684 
L -778.962162 1971.860757 
L -774.493694 1966.85383 
L -770.025225 1961.846903 
L -765.556757 1956.839976 
L -761.088288 1951.833049 
L -756.61982 1946.826122 
L -752.151351 1941.819195 
L -747.682883 1936.812268 
L -743.214414 1931.805341 
L -738.745946 1926.798414 
L -734.277477 1921.791487 
L -729.809009 1916.784561 
L -725.340541 1911.777634 
L -720.872072 1906.770707 
L -716.403604 1901.76378 
L -711.935135 1896.756853 
L -707.466667 1891.749926 
L -702.998198 1886.742999 
L -698.52973 1881.736072 
L -694.061261 1876.729145 
L -689.592793 1871.722218 
L -685.124324 1866.715291 
L -680.655856 1861.708364 
L -676.187387 1856.701437 
L -671.718919 1851.694511 
L -667.25045 1846.687584 
L -662.781982 1841.680657 
L -658.313514 1836.67373 
L -653.845045 1831.666803 
L -649.376577 1826.659876 
L -644.908108 1821.652949 
L -640.43964 1816.646022 
L -635.971171 1811.639095 
L -631.502703 1806.632168 
L -627.034234 1801.625241 
L -622.565766 1796.618314 
L -618.097297 1791.611387 
L -613.628829 1786.60446 
L -609.16036 1781.597534 
L -604.691892 1776.590607 
L -600.223423 1771.58368 
L -595.754955 1766.576753 
L -591.286486 1761.569826 
L -586.818018 1756.562899 
L -582.34955 1751.555972 
L -577.881081 1746.549045 
L -573.412613 1741.542118 
L -568.944144 1736.535191 
L -564.475676 1731.528264 
L -560.007207 1726.521337 
L -555.538739 1721.51441 
L -551.07027 1716.507483 
L -546.601802 1711.500557 
L -542.133333 1706.49363 
L -537.664865 1701.486703 
L -533.196396 1696.479776 
L -528.727928 1691.472849 
L -524.259459 1686.465922 
L -519.790991 1681.458995 
L -515.322523 1676.452068 
L -510.854054 1671.445141 
L -506.385586 1666.438214 
L -501.917117 1661.431287 
L -497.448649 1656.42436 
L -492.98018 1651.417433 
L -488.511712 1646.410507 
L -484.043243 1641.40358 
L -479.574775 1636.396653 
L -475.106306 1631.389726 
L -470.637838 1626.382799 
L -466.169369 1621.375872 
L -461.700901 1616.368945 
L -457.232432 1611.362018 
L -452.763964 1606.355091 
L -448.295495 1601.348164 
L -443.827027 1596.341237 
L -439.358559 1591.33431 
L -434.89009 1586.327383 
L -430.421622 1581.320456 
L -425.953153 1576.31353 
L -421.484685 1571.306603 
L -417.016216 1566.299676 
L -412.547748 1561.292749 
L -408.079279 1556.285822 
L -403.610811 1551.278895 
L -399.142342 1546.271968 
L -394.673874 1541.265041 
L -390.205405 1536.258114 
L -385.736937 1531.251187 
L -381.268468 1526.24426 
L -376.8 1521.237333 
L -372.331532 1516.230406 
L -367.863063 1511.223479 
L -363.394595 1506.216553 
L -358.926126 1501.209626 
L -354.457658 1496.202699 
L -349.989189 1491.195772 
L -345.520721 1486.188845 
L -341.052252 1481.181918 
L -336.583784 1476.174991 
L -332.115315 1471.168064 
L -327.646847 1466.161137 
L -323.178378 1461.15421 
L -318.70991 1456.147283 
L -314.241441 1451.140356 
L -309.772973 1446.133429 
L -305.304505 1441.126503 
L -300.836036 1436.119576 
L -296.367568 1431.112649 
L -291.899099 1426.105722 
L -287.430631 1421.098795 
L -282.962162 1416.091868 
L -278.493694 1411.084941 
L -274.025225 1406.078014 
L -269.556757 1401.071087 
L -265.088288 1396.06416 
L -260.61982 1391.057233 
L -256.151351 1386.050306 
L -251.682883 1381.043379 
L -247.214414 1376.036452 
L -242.745946 1371.029526 
L -238.277477 1366.022599 
L -233.809009 1361.015672 
L -229.340541 1356.008745 
L -224.872072 1351.001818 
L -220.403604 1345.994891 
L -215.935135 1340.987964 
L -211.466667 1335.981037 
L -206.998198 1330.97411 
L -202.52973 1325.967183 
L -198.061261 1320.960256 
L -193.592793 1315.953329 
L -189.124324 1310.946402 
L -184.655856 1305.939475 
L -180.187387 1300.932549 
L -175.718919 1295.925622 
L -171.25045 1290.918695 
L -166.781982 1285.911768 
L -162.313514 1280.904841 
L -157.845045 1275.897914 
L -153.376577 1270.890987 
L -148.908108 1265.88406 
L -144.43964 1260.877133 
L -139.971171 1255.870206 
L -135.502703 1250.863279 
L -131.034234 1245.856352 
L -126.565766 1240.849425 
L -122.097297 1235.842498 
L -117.628829 1230.835572 
L -113.16036 1225.828645 
L -108.691892 1220.821718 
L -104.223423 1215.814791 
L -99.754955 1210.807864 
L -95.286486 1205.800937 
L -90.818018 1200.79401 
L -86.34955 1195.787083 
L -81.881081 1190.780156 
L -77.412613 1185.773229 
L -72.944144 1180.766302 
L -68.475676 1175.759375 
L -64.007207 1170.752448 
L -59.538739 1165.745522 
L -55.07027 1160.738595 
L -50.601802 1155.731668 
L -46.133333 1150.724741 
L -41.664865 1145.717814 
L -37.196396 1140.710887 
L -32.727928 1135.70396 
L -28.259459 1130.697033 
L -23.790991 1125.690106 
L -19.322523 1120.683179 
L -14.854054 1115.676252 
L -10.385586 1110.669325 
L -5.917117 1105.662398 
L -1.448649 1100.655471 
L 3.01982 1095.648545 
L 7.488288 1090.641618 
L 11.956757 1085.634691 
L 16.425225 1080.627764 
L 20.893694 1075.620837 
L 25.362162 1070.61391 
L 29.830631 1065.606983 
L 34.299099 1060.600056 
L 38.767568 1055.593129 
L 43.236036 1050.586202 
L 47.704505 1045.579275 
L 52.172973 1040.572348 
L 56.641441 1035.565421 
L 61.10991 1030.558494 
L 65.578378 1025.551568 
L 70.046847 1020.544641 
L 74.515315 1015.537714 
L 78.983784 1010.530787 
L 83.452252 1005.52386 
L 87.920721 1000.516933 
L 92.389189 995.510006 
L 96.857658 990.503079 
L 101.326126 985.496152 
L 105.794595 980.489225 
L 110.263063 975.482298 
L 114.731532 970.475371 
L 119.2 965.468444 
L 123.668468 960.461518 
L 128.136937 955.454591 
L 132.605405 950.447664 
L 137.073874 945.440737 
L 141.542342 940.43381 
L 146.010811 935.426883 
L 150.479279 930.419956 
L 154.947748 925.413029 
L 159.416216 920.406102 
L 163.884685 915.399175 
L 168.353153 910.392248 
L 172.821622 905.385321 
L 177.29009 900.378394 
L 181.758559 895.371467 
L 186.227027 890.364541 
L 190.695495 885.357614 
L 195.163964 880.350687 
L 199.632432 875.34376 
L 204.100901 870.336833 
L 208.569369 865.329906 
L 213.037838 860.322979 
L 217.506306 855.316052 
L 221.974775 850.309125 
L 226.443243 845.302198 
L 230.911712 840.295271 
L 235.38018 835.288344 
L 239.848649 830.281417 
L 244.317117 825.27449 
L 248.785586 820.267564 
L 253.254054 815.260637 
L 257.722523 810.25371 
L 262.190991 805.246783 
L 266.659459 800.239856 
L 271.127928 795.232929 
L 275.596396 790.226002 
L 280.064865 785.219075 
L 284.533333 780.212148 
L 289.001802 775.205221 
L 293.47027 770.198294 
L 297.938739 765.191367 
L 302.407207 760.18444 
L 306.875676 755.177514 
L 311.344144 750.170587 
L 315.812613 745.16366 
L 320.281081 740.156733 
L 324.74955 735.149806 
L 329.218018 730.142879 
L 333.686486 725.135952 
L 338.154955 720.129025 
L 342.623423 715.122098 
L 347.091892 710.115171 
L 351.56036 705.108244 
L 356.028829 700.101317 
L 360.497297 695.09439 
L 364.965766 690.087463 
L 369.434234 685.080537 
L 373.902703 680.07361 
L 378.371171 675.066683 
L 382.83964 670.059756 
L 387.308108 665.052829 
L 391.776577 660.045902 
L 396.245045 655.038975 
L 400.713514 650.032048 
L 405.181982 645.025121 
L 409.65045 640.018194 
L 414.118919 635.011267 
L 418.587387 630.00434 
L 423.055856 624.997413 
L 427.524324 619.990486 
L 431.992793 614.98356 
L 436.461261 609.976633 
L 440.92973 604.969706 
L 445.398198 599.962779 
L 449.866667 594.955852 
L 454.335135 589.948925 
L 458.803604 584.941998 
L 463.272072 579.935071 
L 467.740541 574.928144 
L 472.209009 569.921217 
L 476.677477 564.91429 
L 481.145946 559.907363 
L 485.614414 554.900436 
L 490.082883 549.89351 
L 494.551351 544.886583 
L 499.01982 539.879656 
L 503.488288 534.872729 
L 507.956757 529.865802 
L 512.425225 524.858875 
L 516.893694 519.851948 
L 521.362162 514.845021 
L 525.830631 509.838094 
L 530.299099 504.831167 
L 534.767568 499.82424 
L 539.236036 494.817313 
L 543.704505 489.810386 
L 548.172973 484.803459 
L 552.641441 479.796533 
L 557.10991 474.789606 
L 561.578378 469.782679 
L 566.046847 464.775752 
L 570.515315 459.768825 
L 574.983784 454.761898 
L 579.452252 453.601874 
L 583.920721 454.24764 
L 588.389189 454.893405 
L 592.857658 455.539171 
L 597.326126 456.184937 
L 601.794595 456.830703 
L 606.263063 457.476468 
L 610.731532 458.122234 
L 615.2 458.768 
L 619.668468 459.413766 
L 624.136937 460.059532 
L 628.605405 460.705297 
L 633.073874 461.351063 
L 637.542342 461.996829 
L 642.010811 462.642595 
L 646.479279 463.28836 
L 650.947748 463.934126 
L 655.416216 464.579892 
L 659.884685 465.225658 
L 664.353153 465.871423 
L 668.821622 466.517189 
L 673.29009 467.162955 
L 677.758559 467.808721 
L 682.227027 468.454486 
L 686.695495 469.100252 
L 691.163964 469.746018 
L 695.632432 470.391784 
L 700.100901 471.03755 
L 704.569369 471.683315 
L 709.037838 472.329081 
L 713.506306 472.974847 
L 717.974775 473.620613 
L 722.443243 474.266378 
L 726.911712 474.912144 
L 731.38018 475.55791 
L 735.848649 476.203676 
L 740.317117 476.849441 
L 744.785586 477.495207 
L 749.254054 478.140973 
L 753.722523 478.786739 
L 758.190991 479.432505 
L 762.659459 480.07827 
L 767.127928 480.724036 
L 771.596396 481.369802 
L 776.064865 482.015568 
L 780.533333 482.661333 
L 785.001802 483.307099 
L 789.47027 483.952865 
L 793.938739 484.598631 
L 798.407207 485.244396 
L 802.875676 485.890162 
L 807.344144 486.535928 
L 811.812613 487.181694 
L 816.281081 487.827459 
L 820.74955 488.473225 
L 825.218018 489.118991 
L 829.686486 489.764757 
L 834.154955 490.410523 
L 838.623423 491.056288 
L 843.091892 491.702054 
L 847.56036 492.34782 
L 852.028829 492.993586 
L 856.497297 493.639351 
L 860.965766 494.285117 
L 865.434234 494.930883 
L 869.902703 495.576649 
L 874.371171 496.222414 
L 878.83964 496.86818 
L 883.308108 497.513946 
L 887.776577 498.159712 
L 892.245045 498.805477 
L 896.713514 499.451243 
L 901.181982 500.097009 
L 905.65045 500.742775 
L 910.118919 501.388541 
L 914.587387 502.034306 
L 919.055856 502.680072 
L 923.524324 503.325838 
L 927.992793 503.971604 
L 932.461261 504.617369 
L 936.92973 505.263135 
L 941.398198 505.908901 
L 945.866667 506.554667 
L 950.335135 507.200432 
L 954.803604 507.846198 
L 959.272072 508.491964 
L 963.740541 509.13773 
L 968.209009 509.783495 
L 972.677477 510.429261 
L 977.145946 511.075027 
L 981.614414 511.720793 
L 986.082883 512.366559 
L 990.551351 513.012324 
L 995.01982 513.65809 
L 999.488288 514.303856 
L 1003.956757 514.949622 
L 1008.425225 515.595387 
L 1012.893694 516.241153 
L 1017.362162 516.886919 
L 1021.830631 517.532685 
L 1026.299099 518.17845 
L 1030.767568 518.824216 
L 1035.236036 519.469982 
L 1039.704505 520.115748 
L 1044.172973 520.761514 
L 1048.641441 521.407279 
L 1053.10991 522.053045 
L 1057.578378 522.698811 
L 1062.046847 523.344577 
L 1066.515315 523.990342 
L 1070.983784 524.636108 
L 1075.452252 525.281874 
L 1079.920721 525.92764 
L 1084.389189 526.573405 
L 1088.857658 527.219171 
L 1093.326126 527.864937 
L 1097.794595 528.510703 
L 1102.263063 529.156468 
L 1106.731532 529.802234 
L 1111.2 530.448 
L 1115.668468 531.093766 
L 1120.136937 531.739532 
L 1124.605405 532.385297 
L 1129.073874 533.031063 
L 1133.542342 533.676829 
L 1138.010811 534.322595 
L 1142.479279 534.96836 
L 1146.947748 535.614126 
L 1151.416216 536.259892 
L 1155.884685 536.905658 
L 1160.353153 537.551423 
L 1164.821622 538.197189 
L 1169.29009 538.842955 
L 1173.758559 539.488721 
L 1178.227027 540.134486 
L 1182.695495 540.780252 
L 1187.163964 541.426018 
L 1191.632432 542.071784 
L 1196.100901 542.71755 
L 1200.569369 543.363315 
L 1205.037838 544.009081 
L 1209.506306 544.654847 
L 1213.974775 545.300613 
L 1218.443243 545.946378 
L 1222.911712 546.592144 
L 1227.38018 547.23791 
L 1231.848649 547.883676 
L 1236.317117 548.529441 
L 1240.785586 549.175207 
L 1245.254054 549.820973 
L 1249.722523 550.466739 
L 1254.190991 551.112505 
L 1258.659459 551.75827 
L 1263.127928 552.404036 
L 1267.596396 553.049802 
L 1272.064865 553.695568 
L 1276.533333 554.341333 
L 1281.001802 554.987099 
L 1285.47027 555.632865 
L 1289.938739 556.278631 
L 1294.407207 556.924396 
L 1298.875676 557.570162 
L 1303.344144 558.215928 
L 1307.812613 558.861694 
L 1312.281081 559.507459 
L 1316.74955 560.153225 
L 1321.218018 560.798991 
L 1325.686486 561.444757 
L 1330.154955 562.090523 
L 1334.623423 562.736288 
L 1339.091892 563.382054 
L 1343.56036 564.02782 
L 1348.028829 564.673586 
L 1352.497297 565.319351 
L 1356.965766 565.965117 
L 1361.434234 566.610883 
L 1365.902703 567.256649 
L 1370.371171 567.902414 
L 1374.83964 568.54818 
L 1379.308108 569.193946 
L 1383.776577 569.839712 
L 1388.245045 570.485477 
L 1392.713514 571.131243 
L 1397.181982 571.777009 
L 1401.65045 572.422775 
L 1406.118919 573.068541 
L 1410.587387 573.714306 
L 1415.055856 574.360072 
L 1419.524324 575.005838 
L 1423.992793 575.651604 
L 1428.461261 576.297369 
L 1432.92973 576.943135 
L 1437.398198 577.588901 
L 1441.866667 578.234667 
L 1446.335135 578.880432 
L 1450.803604 579.526198 
L 1455.272072 580.171964 
L 1459.740541 580.81773 
L 1464.209009 581.463495 
L 1468.677477 582.109261 
L 1473.145946 582.755027 
L 1477.614414 583.400793 
L 1482.082883 584.046559 
L 1486.551351 584.692324 
L 1491.01982 585.33809 
L 1495.488288 585.983856 
L 1499.956757 586.629622 
L 1504.425225 587.275387 
L 1508.893694 587.921153 
L 1513.362162 588.566919 
L 1517.830631 589.212685 
L 1522.299099 589.85845 
L 1526.767568 590.504216 
L 1531.236036 591.149982 
L 1535.704505 591.795748 
L 1540.172973 592.441514 
L 1544.641441 593.087279 
L 1549.10991 593.733045 
L 1553.578378 594.378811 
L 1558.046847 595.024577 
L 1562.515315 595.670342 
L 1566.983784 596.316108 
L 1571.452252 596.961874 
L 1575.920721 597.60764 
L 1580.389189 598.253405 
L 1584.857658 598.899171 
L 1589.326126 599.544937 
L 1593.794595 600.190703 
L 1598.263063 600.836468 
L 1602.731532 601.482234 
L 1607.2 602.128 
L 1611.668468 602.773766 
L 1616.136937 603.419532 
L 1620.605405 604.065297 
L 1625.073874 604.711063 
L 1629.542342 605.356829 
L 1634.010811 606.002595 
L 1638.479279 606.64836 
L 1642.947748 607.294126 
L 1647.416216 607.939892 
L 1651.884685 608.585658 
L 1656.353153 609.231423 
L 1660.821622 609.877189 
L 1665.29009 610.522955 
L 1669.758559 611.168721 
L 1674.227027 611.814486 
L 1678.695495 612.460252 
L 1683.163964 613.106018 
L 1687.632432 613.751784 
L 1692.100901 614.39755 
L 1696.569369 615.043315 
L 1701.037838 615.689081 
L 1705.506306 616.334847 
L 1709.974775 616.980613 
L 1714.443243 617.626378 
L 1718.911712 618.272144 
L 1723.38018 618.91791 
L 1727.848649 619.563676 
L 1732.317117 620.209441 
L 1736.785586 620.855207 
L 1741.254054 621.500973 
L 1745.722523 622.146739 
L 1750.190991 622.792505 
L 1754.659459 623.43827 
L 1759.127928 624.084036 
L 1763.596396 624.729802 
L 1768.064865 625.375568 
L 1772.533333 626.021333 
L 1777.001802 626.667099 
L 1781.47027 627.312865 
L 1785.938739 627.958631 
L 1790.407207 628.604396 
L 1794.875676 629.250162 
L 1799.344144 629.895928 
L 1803.812613 630.541694 
L 1808.281081 631.187459 
L 1812.74955 631.833225 
L 1817.218018 632.478991 
L 1821.686486 633.124757 
L 1826.154955 633.770523 
L 1830.623423 634.416288 
L 1835.091892 635.062054 
L 1839.56036 635.70782 
L 1844.028829 636.353586 
L 1848.497297 636.999351 
L 1852.965766 637.645117 
L 1857.434234 638.290883 
L 1861.902703 638.936649 
L 1866.371171 639.582414 
L 1870.83964 640.22818 
L 1875.308108 640.873946 
L 1879.776577 641.519712 
L 1884.245045 642.165477 
L 1888.713514 642.811243 
L 1893.181982 643.457009 
L 1897.65045 644.102775 
L 1902.118919 644.748541 
L 1906.587387 645.394306 
L 1911.055856 646.040072 
L 1915.524324 646.685838 
L 1919.992793 647.331604 
L 1924.461261 647.977369 
L 1928.92973 648.623135 
L 1933.398198 649.268901 
L 1937.866667 649.914667 
L 1942.335135 650.560432 
L 1946.803604 651.206198 
L 1951.272072 651.851964 
L 1955.740541 652.49773 
L 1960.209009 653.143495 
L 1964.677477 653.789261 
L 1969.145946 654.435027 
L 1973.614414 655.080793 
L 1978.082883 655.726559 
L 1982.551351 656.372324 
L 1987.01982 657.01809 
L 1991.488288 657.663856 
L 1995.956757 658.309622 
L 2000.425225 658.955387 
L 2004.893694 659.601153 
L 2009.362162 660.246919 
L 2013.830631 660.892685 
L 2018.299099 661.53845 
L 2022.767568 662.184216 
L 2027.236036 662.829982 
L 2031.704505 663.475748 
L 2036.172973 664.121514 
L 2040.641441 664.767279 
L 2045.10991 665.413045 
L 2049.578378 666.058811 
L 2054.046847 666.704577 
L 2058.515315 667.350342 
L 2062.983784 667.996108 
L 2067.452252 668.641874 
L 2071.920721 669.28764 
L 2076.389189 669.933405 
L 2080.857658 670.579171 
L 2085.326126 671.224937 
L 2089.794595 671.870703 
L 2094.263063 672.516468 
L 2098.731532 673.162234 
L 2103.2 673.808 
L 2107.668468 674.453766 
L 2112.136937 675.099532 
L 2116.605405 675.745297 
L 2121.073874 676.391063 
L 2125.542342 677.036829 
L 2130.010811 677.682595 
L 2134.479279 678.32836 
L 2138.947748 678.974126 
L 2143.416216 679.619892 
L 2147.884685 680.265658 
L 2152.353153 680.911423 
L 2156.821622 681.557189 
L 2161.29009 682.202955 
L 2165.758559 682.848721 
L 2170.227027 683.494486 
L 2174.695495 684.140252 
L 2179.163964 684.786018 
L 2183.632432 685.431784 
L 2188.100901 686.07755 
L 2192.569369 686.723315 
L 2197.037838 687.369081 
L 2201.506306 688.014847 
L 2205.974775 688.660613 
L 2210.443243 689.306378 
L 2214.911712 689.952144 
L 2219.38018 690.59791 
L 2223.848649 691.243676 
L 2228.317117 691.889441 
L 2232.785586 692.535207 
L 2237.254054 693.180973 
L 2241.722523 693.826739 
L 2246.190991 694.472505 
L 2250.659459 695.11827 
L 2255.127928 695.764036 
L 2259.596396 696.409802 
L 2264.064865 697.055568 
L 2268.533333 697.701333 
L 2273.001802 698.347099 
L 2277.47027 698.992865 
L 2281.938739 699.638631 
L 2286.407207 700.284396 
L 2290.875676 700.930162 
L 2295.344144 701.575928 
L 2299.812613 702.221694 
L 2304.281081 702.867459 
L 2308.74955 703.513225 
L 2313.218018 704.158991 
L 2317.686486 704.804757 
L 2322.154955 705.450523 
L 2326.623423 706.096288 
L 2331.091892 706.742054 
L 2335.56036 707.38782 
L 2340.028829 708.033586 
L 2344.497297 708.679351 
L 2348.965766 709.325117 
L 2353.434234 709.970883 
L 2357.902703 710.616649 
L 2362.371171 711.262414 
L 2366.83964 711.90818 
L 2371.308108 712.553946 
L 2375.776577 713.199712 
L 2380.245045 713.845477 
L 2384.713514 714.491243 
L 2389.181982 715.137009 
L 2393.65045 715.782775 
L 2398.118919 716.428541 
L 2402.587387 717.074306 
L 2407.055856 717.720072 
L 2411.524324 718.365838 
L 2415.992793 719.011604 
L 2420.461261 719.657369 
L 2424.92973 720.303135 
L 2429.398198 720.948901 
L 2433.866667 721.594667 
L 2438.335135 722.240432 
L 2442.803604 722.886198 
L 2447.272072 723.531964 
L 2451.740541 724.17773 
L 2456.209009 724.823495 
L 2460.677477 725.469261 
L 2465.145946 726.115027 
L 2469.614414 726.760793 
L 2474.082883 727.406559 
L 2478.551351 728.052324 
L 2483.01982 728.69809 
L 2487.488288 729.343856 
L 2491.956757 729.989622 
L 2496.425225 730.635387 
L 2500.893694 731.281153 
L 2505.362162 731.926919 
L 2509.830631 732.572685 
L 2514.299099 733.21845 
L 2518.767568 733.864216 
L 2523.236036 734.509982 
L 2527.704505 735.155748 
L 2532.172973 735.801514 
L 2536.641441 736.447279 
L 2541.10991 737.093045 
L 2545.578378 737.738811 
L 2550.046847 738.384577 
L 2554.515315 739.030342 
L 2558.983784 739.676108 
L 2563.452252 740.321874 
L 2567.920721 740.96764 
L 2572.389189 741.613405 
L 2576.857658 742.259171 
L 2581.326126 742.904937 
L 2585.794595 743.550703 
L 2590.263063 744.196468 
L 2594.731532 744.842234 
L 2599.2 745.488 
L 2599.2 745.488 
L 2599.2 745.488 
L 2594.731532 744.842234 
L 2590.263063 744.196468 
L 2585.794595 743.550703 
L 2581.326126 742.904937 
L 2576.857658 742.259171 
L 2572.389189 741.613405 
L 2567.920721 740.96764 
L 2563.452252 740.321874 
L 2558.983784 739.676108 
L 2554.515315 739.030342 
L 2550.046847 738.384577 
L 2545.578378 737.738811 
L 2541.10991 737.093045 
L 2536.641441 736.447279 
L 2532.172973 735.801514 
L 2527.704505 735.155748 
L 2523.236036 734.509982 
L 2518.767568 733.864216 
L 2514.299099 733.21845 
L 2509.830631 732.572685 
L 2505.362162 731.926919 
L 2500.893694 731.281153 
L 2496.425225 730.635387 
L 2491.956757 729.989622 
L 2487.488288 729.343856 
L 2483.01982 728.69809 
L 2478.551351 728.052324 
L 2474.082883 727.406559 
L 2469.614414 726.760793 
L 2465.145946 726.115027 
L 2460.677477 725.469261 
L 2456.209009 724.823495 
L 2451.740541 724.17773 
L 2447.272072 723.531964 
L 2442.803604 722.886198 
L 2438.335135 722.240432 
L 2433.866667 721.594667 
L 2429.398198 720.948901 
L 2424.92973 720.303135 
L 2420.461261 719.657369 
L 2415.992793 719.011604 
L 2411.524324 718.365838 
L 2407.055856 717.720072 
L 2402.587387 717.074306 
L 2398.118919 716.428541 
L 2393.65045 715.782775 
L 2389.181982 715.137009 
L 2384.713514 714.491243 
L 2380.245045 713.845477 
L 2375.776577 713.199712 
L 2371.308108 712.553946 
L 2366.83964 711.90818 
L 2362.371171 711.262414 
L 2357.902703 710.616649 
L 2353.434234 709.970883 
L 2348.965766 709.325117 
L 2344.497297 708.679351 
L 2340.028829 708.033586 
L 2335.56036 707.38782 
L 2331.091892 706.742054 
L 2326.623423 706.096288 
L 2322.154955 705.450523 
L 2317.686486 704.804757 
L 2313.218018 704.158991 
L 2308.74955 703.513225 
L 2304.281081 702.867459 
L 2299.812613 702.221694 
L 2295.344144 701.575928 
L 2290.875676 700.930162 
L 2286.407207 700.284396 
L 2281.938739 699.638631 
L 2277.47027 698.992865 
L 2273.001802 698.347099 
L 2268.533333 697.701333 
L 2264.064865 697.055568 
L 2259.596396 696.409802 
L 2255.127928 695.764036 
L 2250.659459 695.11827 
L 2246.190991 694.472505 
L 2241.722523 693.826739 
L 2237.254054 693.180973 
L 2232.785586 692.535207 
L 2228.317117 691.889441 
L 2223.848649 691.243676 
L 2219.38018 690.59791 
L 2214.911712 689.952144 
L 2210.443243 689.306378 
L 2205.974775 688.660613 
L 2201.506306 688.014847 
L 2197.037838 687.369081 
L 2192.569369 686.723315 
L 2188.100901 686.07755 
L 2183.632432 685.431784 
L 2179.163964 684.786018 
L 2174.695495 684.140252 
L 2170.227027 683.494486 
L 2165.758559 682.848721 
L 2161.29009 682.202955 
L 2156.821622 681.557189 
L 2152.353153 680.911423 
L 2147.884685 680.265658 
L 2143.416216 679.619892 
L 2138.947748 678.974126 
L 2134.479279 678.32836 
L 2130.010811 677.682595 
L 2125.542342 677.036829 
L 2121.073874 676.391063 
L 2116.605405 675.745297 
L 2112.136937 675.099532 
L 2107.668468 674.453766 
L 2103.2 673.808 
L 2098.731532 673.162234 
L 2094.263063 672.516468 
L 2089.794595 671.870703 
L 2085.326126 671.224937 
L 2080.857658 670.579171 
L 2076.389189 669.933405 
L 2071.920721 669.28764 
L 2067.452252 668.641874 
L 2062.983784 667.996108 
L 2058.515315 667.350342 
L 2054.046847 666.704577 
L 2049.578378 666.058811 
L 2045.10991 665.413045 
L 2040.641441 664.767279 
L 2036.172973 664.121514 
L 2031.704505 663.475748 
L 2027.236036 662.829982 
L 2022.767568 662.184216 
L 2018.299099 661.53845 
L 2013.830631 660.892685 
L 2009.362162 660.246919 
L 2004.893694 659.601153 
L 2000.425225 658.955387 
L 1995.956757 658.309622 
L 1991.488288 657.663856 
L 1987.01982 657.01809 
L 1982.551351 656.372324 
L 1978.082883 655.726559 
L 1973.614414 655.080793 
L 1969.145946 654.435027 
L 1964.677477 653.789261 
L 1960.209009 653.143495 
L 1955.740541 652.49773 
L 1951.272072 651.851964 
L 1946.803604 651.206198 
L 1942.335135 650.560432 
L 1937.866667 649.914667 
L 1933.398198 649.268901 
L 1928.92973 648.623135 
L 1924.461261 647.977369 
L 1919.992793 647.331604 
L 1915.524324 646.685838 
L 1911.055856 646.040072 
L 1906.587387 645.394306 
L 1902.118919 644.748541 
L 1897.65045 644.102775 
L 1893.181982 643.457009 
L 1888.713514 642.811243 
L 1884.245045 642.165477 
L 1879.776577 641.519712 
L 1875.308108 640.873946 
L 1870.83964 640.22818 
L 1866.371171 639.582414 
L 1861.902703 638.936649 
L 1857.434234 638.290883 
L 1852.965766 637.645117 
L 1848.497297 636.999351 
L 1844.028829 636.353586 
L 1839.56036 635.70782 
L 1835.091892 635.062054 
L 1830.623423 634.416288 
L 1826.154955 633.770523 
L 1821.686486 633.124757 
L 1817.218018 632.478991 
L 1812.74955 631.833225 
L 1808.281081 631.187459 
L 1803.812613 630.541694 
L 1799.344144 629.895928 
L 1794.875676 629.250162 
L 1790.407207 628.604396 
L 1785.938739 627.958631 
L 1781.47027 627.312865 
L 1777.001802 626.667099 
L 1772.533333 626.021333 
L 1768.064865 625.375568 
L 1763.596396 624.729802 
L 1759.127928 624.084036 
L 1754.659459 623.43827 
L 1750.190991 622.792505 
L 1745.722523 622.146739 
L 1741.254054 621.500973 
L 1736.785586 620.855207 
L 1732.317117 620.209441 
L 1727.848649 619.563676 
L 1723.38018 618.91791 
L 1718.911712 618.272144 
L 1714.443243 617.626378 
L 1709.974775 616.980613 
L 1705.506306 616.334847 
L 1701.037838 615.689081 
L 1696.569369 615.043315 
L 1692.100901 614.39755 
L 1687.632432 613.751784 
L 1683.163964 613.106018 
L 1678.695495 612.460252 
L 1674.227027 611.814486 
L 1669.758559 611.168721 
L 1665.29009 610.522955 
L 1660.821622 609.877189 
L 1656.353153 609.231423 
L 1651.884685 608.585658 
L 1647.416216 607.939892 
L 1642.947748 607.294126 
L 1638.479279 606.64836 
L 1634.010811 606.002595 
L 1629.542342 605.356829 
L 1625.073874 604.711063 
L 1620.605405 604.065297 
L 1616.136937 603.419532 
L 1611.668468 602.773766 
L 1607.2 602.128 
L 1602.731532 601.482234 
L 1598.263063 600.836468 
L 1593.794595 600.190703 
L 1589.326126 599.544937 
L 1584.857658 598.899171 
L 1580.389189 598.253405 
L 1575.920721 597.60764 
L 1571.452252 596.961874 
L 1566.983784 596.316108 
L 1562.515315 595.670342 
L 1558.046847 595.024577 
L 1553.578378 594.378811 
L 1549.10991 593.733045 
L 1544.641441 593.087279 
L 1540.172973 592.441514 
L 1535.704505 591.795748 
L 1531.236036 591.149982 
L 1526.767568 590.504216 
L 1522.299099 589.85845 
L 1517.830631 589.212685 
L 1513.362162 588.566919 
L 1508.893694 587.921153 
L 1504.425225 587.275387 
L 1499.956757 586.629622 
L 1495.488288 585.983856 
L 1491.01982 585.33809 
L 1486.551351 584.692324 
L 1482.082883 584.046559 
L 1477.614414 583.400793 
L 1473.145946 582.755027 
L 1468.677477 582.109261 
L 1464.209009 581.463495 
L 1459.740541 580.81773 
L 1455.272072 580.171964 
L 1450.803604 579.526198 
L 1446.335135 578.880432 
L 1441.866667 578.234667 
L 1437.398198 577.588901 
L 1432.92973 576.943135 
L 1428.461261 576.297369 
L 1423.992793 575.651604 
L 1419.524324 575.005838 
L 1415.055856 574.360072 
L 1410.587387 573.714306 
L 1406.118919 573.068541 
L 1401.65045 572.422775 
L 1397.181982 571.777009 
L 1392.713514 571.131243 
L 1388.245045 570.485477 
L 1383.776577 569.839712 
L 1379.308108 569.193946 
L 1374.83964 568.54818 
L 1370.371171 567.902414 
L 1365.902703 567.256649 
L 1361.434234 566.610883 
L 1356.965766 565.965117 
L 1352.497297 565.319351 
L 1348.028829 564.673586 
L 1343.56036 564.02782 
L 1339.091892 563.382054 
L 1334.623423 562.736288 
L 1330.154955 562.090523 
L 1325.686486 561.444757 
L 1321.218018 560.798991 
L 1316.74955 560.153225 
L 1312.281081 559.507459 
L 1307.812613 558.861694 
L 1303.344144 558.215928 
L 1298.875676 557.570162 
L 1294.407207 556.924396 
L 1289.938739 556.278631 
L 1285.47027 555.632865 
L 1281.001802 554.987099 
L 1276.533333 554.341333 
L 1272.064865 553.695568 
L 1267.596396 553.049802 
L 1263.127928 552.404036 
L 1258.659459 551.75827 
L 1254.190991 551.112505 
L 1249.722523 550.466739 
L 1245.254054 549.820973 
L 1240.785586 549.175207 
L 1236.317117 548.529441 
L 1231.848649 547.883676 
L 1227.38018 547.23791 
L 1222.911712 546.592144 
L 1218.443243 545.946378 
L 1213.974775 545.300613 
L 1209.506306 544.654847 
L 1205.037838 544.009081 
L 1200.569369 543.363315 
L 1196.100901 542.71755 
L 1191.632432 542.071784 
L 1187.163964 541.426018 
L 1182.695495 540.780252 
L 1178.227027 540.134486 
L 1173.758559 539.488721 
L 1169.29009 538.842955 
L 1164.821622 538.197189 
L 1160.353153 537.551423 
L 1155.884685 536.905658 
L 1151.416216 536.259892 
L 1146.947748 535.614126 
L 1142.479279 534.96836 
L 1138.010811 534.322595 
L 1133.542342 533.676829 
L 1129.073874 533.031063 
L 1124.605405 532.385297 
L 1120.136937 531.739532 
L 1115.668468 531.093766 
L 1111.2 530.448 
L 1106.731532 529.802234 
L 1102.263063 529.156468 
L 1097.794595 528.510703 
L 1093.326126 527.864937 
L 1088.857658 527.219171 
L 1084.389189 526.573405 
L 1079.920721 525.92764 
L 1075.452252 525.281874 
L 1070.983784 524.636108 
L 1066.515315 523.990342 
L 1062.046847 523.344577 
L 1057.578378 522.698811 
L 1053.10991 522.053045 
L 1048.641441 521.407279 
L 1044.172973 520.761514 
L 1039.704505 520.115748 
L 1035.236036 519.469982 
L 1030.767568 518.824216 
L 1026.299099 518.17845 
L 1021.830631 517.532685 
L 1017.362162 516.886919 
L 1012.893694 516.241153 
L 1008.425225 515.595387 
L 1003.956757 514.949622 
L 999.488288 514.303856 
L 995.01982 513.65809 
L 990.551351 513.012324 
L 986.082883 512.366559 
L 981.614414 511.720793 
L 977.145946 511.075027 
L 972.677477 510.429261 
L 968.209009 509.783495 
L 963.740541 509.13773 
L 959.272072 508.491964 
L 954.803604 507.846198 
L 950.335135 507.200432 
L 945.866667 506.554667 
L 941.398198 505.908901 
L 936.92973 505.263135 
L 932.461261 504.617369 
L 927.992793 503.971604 
L 923.524324 503.325838 
L 919.055856 502.680072 
L 914.587387 502.034306 
L 910.118919 501.388541 
L 905.65045 500.742775 
L 901.181982 500.097009 
L 896.713514 499.451243 
L 892.245045 498.805477 
L 887.776577 498.159712 
L 883.308108 497.513946 
L 878.83964 496.86818 
L 874.371171 496.222414 
L 869.902703 495.576649 
L 865.434234 494.930883 
L 860.965766 494.285117 
L 856.497297 493.639351 
L 852.028829 492.993586 
L 847.56036 492.34782 
L 843.091892 491.702054 
L 838.623423 491.056288 
L 834.154955 490.410523 
L 829.686486 489.764757 
L 825.218018 489.118991 
L 820.74955 488.473225 
L 816.281081 487.827459 
L 811.812613 487.181694 
L 807.344144 486.535928 
L 802.875676 485.890162 
L 798.407207 485.244396 
L 793.938739 484.598631 
L 789.47027 483.952865 
L 785.001802 483.307099 
L 780.533333 482.661333 
L 776.064865 482.015568 
L 771.596396 481.369802 
L 767.127928 480.724036 
L 762.659459 480.07827 
L 758.190991 479.432505 
L 753.722523 478.786739 
L 749.254054 478.140973 
L 744.785586 477.495207 
L 740.317117 476.849441 
L 735.848649 476.203676 
L 731.38018 475.55791 
L 726.911712 474.912144 
L 722.443243 474.266378 
L 717.974775 473.620613 
L 713.506306 472.974847 
L 709.037838 472.329081 
L 704.569369 471.683315 
L 700.100901 471.03755 
L 695.632432 470.391784 
L 691.163964 469.746018 
L 686.695495 469.100252 
L 682.227027 468.454486 
L 677.758559 467.808721 
L 673.29009 467.162955 
L 668.821622 466.517189 
L 664.353153 465.871423 
L 659.884685 465.225658 
L 655.416216 464.579892 
L 650.947748 463.934126 
L 646.479279 463.28836 
L 642.010811 462.642595 
L 637.542342 461.996829 
L 633.073874 461.351063 
L 628.605405 460.705297 
L 624.136937 460.059532 
L 619.668468 459.413766 
L 615.2 458.768 
L 610.731532 458.122234 
L 606.263063 457.476468 
L 601.794595 456.830703 
L 597.326126 456.184937 
L 592.857658 455.539171 
L 588.389189 454.893405 
L 583.920721 454.24764 
L 579.452252 453.601874 
L 574.983784 454.761898 
L 570.515315 459.768825 
L 566.046847 464.775752 
L 561.578378 469.782679 
L 557.10991 474.789606 
L 552.641441 479.796533 
L 548.172973 484.803459 
L 543.704505 489.810386 
L 539.236036 494.817313 
L 534.767568 499.82424 
L 530.299099 504.831167 
L 525.830631 509.838094 
L 521.362162 514.845021 
L 516.893694 519.851948 
L 512.425225 524.858875 
L 507.956757 529.865802 
L 503.488288 534.872729 
L 499.01982 539.879656 
L 494.551351 544.886583 
L 490.082883 549.89351 
L 485.614414 554.900436 
L 481.145946 559.907363 
L 476.677477 564.91429 
L 472.209009 569.921217 
L 467.740541 574.928144 
L 463.272072 579.935071 
L 458.803604 584.941998 
L 454.335135 589.948925 
L 449.866667 594.955852 
L 445.398198 599.962779 
L 440.92973 604.969706 
L 436.461261 609.976633 
L 431.992793 614.98356 
L 427.524324 619.990486 
L 423.055856 624.997413 
L 418.587387 630.00434 
L 414.118919 635.011267 
L 409.65045 640.018194 
L 405.181982 645.025121 
L 400.713514 650.032048 
L 396.245045 655.038975 
L 391.776577 660.045902 
L 387.308108 665.052829 
L 382.83964 670.059756 
L 378.371171 675.066683 
L 373.902703 680.07361 
L 369.434234 685.080537 
L 364.965766 690.087463 
L 360.497297 695.09439 
L 356.028829 700.101317 
L 351.56036 705.108244 
L 347.091892 710.115171 
L 342.623423 715.122098 
L 338.154955 720.129025 
L 333.686486 725.135952 
L 329.218018 730.142879 
L 324.74955 735.149806 
L 320.281081 740.156733 
L 315.812613 745.16366 
L 311.344144 750.170587 
L 306.875676 755.177514 
L 302.407207 760.18444 
L 297.938739 765.191367 
L 293.47027 770.198294 
L 289.001802 775.205221 
L 284.533333 780.212148 
L 280.064865 785.219075 
L 275.596396 790.226002 
L 271.127928 795.232929 
L 266.659459 800.239856 
L 262.190991 805.246783 
L 257.722523 810.25371 
L 253.254054 815.260637 
L 248.785586 820.267564 
L 244.317117 825.27449 
L 239.848649 830.281417 
L 235.38018 835.288344 
L 230.911712 840.295271 
L 226.443243 845.302198 
L 221.974775 850.309125 
L 217.506306 855.316052 
L 213.037838 860.322979 
L 208.569369 865.329906 
L 204.100901 870.336833 
L 199.632432 875.34376 
L 195.163964 880.350687 
L 190.695495 885.357614 
L 186.227027 890.364541 
L 181.758559 895.371467 
L 177.29009 900.378394 
L 172.821622 905.385321 
L 168.353153 910.392248 
L 163.884685 915.399175 
L 159.416216 920.406102 
L 154.947748 925.413029 
L 150.479279 930.419956 
L 146.010811 935.426883 
L 141.542342 940.43381 
L 137.073874 945.440737 
L 132.605405 950.447664 
L 128.136937 955.454591 
L 123.668468 960.461518 
L 119.2 965.468444 
L 114.731532 970.475371 
L 110.263063 975.482298 
L 105.794595 980.489225 
L 101.326126 985.496152 
L 96.857658 990.503079 
L 92.389189 995.510006 
L 87.920721 1000.516933 
L 83.452252 1005.52386 
L 78.983784 1010.530787 
L 74.515315 1015.537714 
L 70.046847 1020.544641 
L 65.578378 1025.551568 
L 61.10991 1030.558494 
L 56.641441 1035.565421 
L 52.172973 1040.572348 
L 47.704505 1045.579275 
L 43.236036 1050.586202 
L 38.767568 1055.593129 
L 34.299099 1060.600056 
L 29.830631 1065.606983 
L 25.362162 1070.61391 
L 20.893694 1075.620837 
L 16.425225 1080.627764 
L 11.956757 1085.634691 
L 7.488288 1090.641618 
L 3.01982 1095.648545 
L -1.448649 1100.655471 
L -5.917117 1105.662398 
L -10.385586 1110.669325 
L -14.854054 1115.676252 
L -19.322523 1120.683179 
L -23.790991 1125.690106 
L -28.259459 1130.697033 
L -32.727928 1135.70396 
L -37.196396 1140.710887 
L -41.664865 1145.717814 
L -46.133333 1150.724741 
L -50.601802 1155.731668 
L -55.07027 1160.738595 
L -59.538739 1165.745522 
L -64.007207 1170.752448 
L -68.475676 1175.759375 
L -72.944144 1180.766302 
L -77.412613 1185.773229 
L -81.881081 1190.780156 
L -86.34955 1195.787083 
L -90.818018 1200.79401 
L -95.286486 1205.800937 
L -99.754955 1210.807864 
L -104.223423 1215.814791 
L -108.691892 1220.821718 
L -113.16036 1225.828645 
L -117.628829 1230.835572 
L -122.097297 1235.842498 
L -126.565766 1240.849425 
L -131.034234 1245.856352 
L -135.502703 1250.863279 
L -139.971171 1255.870206 
L -144.43964 1260.877133 
L -148.908108 1265.88406 
L -153.376577 1270.890987 
L -157.845045 1275.897914 
L -162.313514 1280.904841 
L -166.781982 1285.911768 
L -171.25045 1290.918695 
L -175.718919 1295.925622 
L -180.187387 1300.932549 
L -184.655856 1305.939475 
L -189.124324 1310.946402 
L -193.592793 1315.953329 
L -198.061261 1320.960256 
L -202.52973 1325.967183 
L -206.998198 1330.97411 
L -211.466667 1335.981037 
L -215.935135 1340.987964 
L -220.403604 1345.994891 
L -224.872072 1351.001818 
L -229.340541 1356.008745 
L -233.809009 1361.015672 
L -238.277477 1366.022599 
L -242.745946 1371.029526 
L -247.214414 1376.036452 
L -251.682883 1381.043379 
L -256.151351 1386.050306 
L -260.61982 1391.057233 
L -265.088288 1396.06416 
L -269.556757 1401.071087 
L -274.025225 1406.078014 
L -278.493694 1411.084941 
L -282.962162 1416.091868 
L -287.430631 1421.098795 
L -291.899099 1426.105722 
L -296.367568 1431.112649 
L -300.836036 1436.119576 
L -305.304505 1441.126503 
L -309.772973 1446.133429 
L -314.241441 1451.140356 
L -318.70991 1456.147283 
L -323.178378 1461.15421 
L -327.646847 1466.161137 
L -332.115315 1471.168064 
L -336.583784 1476.174991 
L -341.052252 1481.181918 
L -345.520721 1486.188845 
L -349.989189 1491.195772 
L -354.457658 1496.202699 
L -358.926126 1501.209626 
L -363.394595 1506.216553 
L -367.863063 1511.223479 
L -372.331532 1516.230406 
L -376.8 1521.237333 
L -381.268468 1526.24426 
L -385.736937 1531.251187 
L -390.205405 1536.258114 
L -394.673874 1541.265041 
L -399.142342 1546.271968 
L -403.610811 1551.278895 
L -408.079279 1556.285822 
L -412.547748 1561.292749 
L -417.016216 1566.299676 
L -421.484685 1571.306603 
L -425.953153 1576.31353 
L -430.421622 1581.320456 
L -434.89009 1586.327383 
L -439.358559 1591.33431 
L -443.827027 1596.341237 
L -448.295495 1601.348164 
L -452.763964 1606.355091 
L -457.232432 1611.362018 
L -461.700901 1616.368945 
L -466.169369 1621.375872 
L -470.637838 1626.382799 
L -475.106306 1631.389726 
L -479.574775 1636.396653 
L -484.043243 1641.40358 
L -488.511712 1646.410507 
L -492.98018 1651.417433 
L -497.448649 1656.42436 
L -501.917117 1661.431287 
L -506.385586 1666.438214 
L -510.854054 1671.445141 
L -515.322523 1676.452068 
L -519.790991 1681.458995 
L -524.259459 1686.465922 
L -528.727928 1691.472849 
L -533.196396 1696.479776 
L -537.664865 1701.486703 
L -542.133333 1706.49363 
L -546.601802 1711.500557 
L -551.07027 1716.507483 
L -555.538739 1721.51441 
L -560.007207 1726.521337 
L -564.475676 1731.528264 
L -568.944144 1736.535191 
L -573.412613 1741.542118 
L -577.881081 1746.549045 
L -582.34955 1751.555972 
L -586.818018 1756.562899 
L -591.286486 1761.569826 
L -595.754955 1766.576753 
L -600.223423 1771.58368 
L -604.691892 1776.590607 
L -609.16036 1781.597534 
L -613.628829 1786.60446 
L -618.097297 1791.611387 
L -622.565766 1796.618314 
L -627.034234 1801.625241 
L -631.502703 1806.632168 
L -635.971171 1811.639095 
L -640.43964 1816.646022 
L -644.908108 1821.652949 
L -649.376577 1826.659876 
L -653.845045 1831.666803 
L -658.313514 1836.67373 
L -662.781982 1841.680657 
L -667.25045 1846.687584 
L -671.718919 1851.694511 
L -676.187387 1856.701437 
L -680.655856 1861.708364 
L -685.124324 1866.715291 
L -689.592793 1871.722218 
L -694.061261 1876.729145 
L -698.52973 1881.736072 
L -702.998198 1886.742999 
L -707.466667 1891.749926 
L -711.935135 1896.756853 
L -716.403604 1901.76378 
L -720.872072 1906.770707 
L -725.340541 1911.777634 
L -729.809009 1916.784561 
L -734.277477 1921.791487 
L -738.745946 1926.798414 
L -743.214414 1931.805341 
L -747.682883 1936.812268 
L -752.151351 1941.819195 
L -756.61982 1946.826122 
L -761.088288 1951.833049 
L -765.556757 1956.839976 
L -770.025225 1961.846903 
L -774.493694 1966.85383 
L -778.962162 1971.860757 
L -783.430631 1976.867684 
L -787.899099 1981.874611 
L -792.367568 1986.881538 
L -796.836036 1991.888464 
L -801.304505 1996.895391 
L -805.772973 2001.902318 
L -810.241441 2006.909245 
L -814.70991 2011.916172 
L -819.178378 2016.923099 
L -823.646847 2021.930026 
L -828.115315 2026.936953 
L -832.583784 2031.94388 
L -837.052252 2036.950807 
L -841.520721 2041.957734 
L -845.989189 2046.964661 
L -850.457658 2051.971588 
L -854.926126 2056.978515 
L -859.394595 2061.985441 
L -863.863063 2066.992368 
L -868.331532 2071.999295 
L -872.8 2077.006222 
L -877.268468 2082.013149 
L -881.736937 2087.020076 
L -886.205405 2092.027003 
L -890.673874 2097.03393 
L -895.142342 2102.040857 
L -899.610811 2107.047784 
L -904.079279 2112.054711 
L -908.547748 2117.061638 
L -913.016216 2122.068565 
L -917.484685 2127.075491 
L -921.953153 2132.082418 
L -926.421622 2137.089345 
L -930.89009 2142.096272 
L -935.358559 2147.103199 
L -939.827027 2152.110126 
L -944.295495 2157.117053 
L -948.763964 2162.12398 
L -953.232432 2167.130907 
L -957.700901 2172.137834 
L -962.169369 2177.144761 
L -966.637838 2182.151688 
L -971.106306 2187.158615 
L -975.574775 2192.165542 
L -980.043243 2197.172468 
L -984.511712 2202.179395 
L -988.98018 2207.186322 
L -993.448649 2212.193249 
L -997.917117 2217.200176 
L -1002.385586 2222.207103 
L -1006.854054 2227.21403 
L -1011.322523 2232.220957 
L -1015.790991 2237.227884 
L -1020.259459 2242.234811 
L -1024.727928 2247.241738 
L -1029.196396 2252.248665 
L -1033.664865 2257.255592 
L -1038.133333 2262.262519 
L -1042.601802 2267.269445 
L -1047.07027 2272.276372 
L -1051.538739 2277.283299 
L -1056.007207 2282.290226 
L -1060.475676 2287.297153 
L -1064.944144 2292.30408 
L -1069.412613 2297.311007 
L -1073.881081 2302.317934 
L -1078.34955 2307.324861 
L -1082.818018 2312.331788 
L -1087.286486 2317.338715 
L -1091.754955 2322.345642 
L -1096.223423 2327.352569 
L -1100.691892 2332.359495 
L -1105.16036 2337.366422 
L -1109.628829 2342.373349 
L -1114.097297 2347.380276 
L -1118.565766 2352.387203 
L -1123.034234 2357.39413 
L -1127.502703 2362.401057 
L -1131.971171 2367.407984 
L -1136.43964 2372.414911 
L -1140.908108 2377.421838 
L -1145.376577 2382.428765 
L -1149.845045 2387.435692 
L -1154.313514 2392.442619 
L -1158.781982 2397.449546 
L -1163.25045 2402.456472 
L -1167.718919 2407.463399 
L -1172.187387 2412.470326 
L -1176.655856 2417.477253 
L -1181.124324 2422.48418 
L -1185.592793 2427.491107 
L -1190.061261 2432.498034 
L -1194.52973 2437.504961 
L -1198.998198 2442.511888 
L -1203.466667 2447.518815 
L -1207.935135 2452.525742 
L -1212.403604 2457.532669 
L -1216.872072 2462.539596 
L -1221.340541 2467.546523 
L -1225.809009 2472.553449 
L -1230.277477 2477.560376 
L -1234.745946 2482.567303 
L -1239.214414 2487.57423 
L -1243.682883 2492.581157 
L -1248.151351 2497.588084 
L -1252.61982 2502.595011 
L -1257.088288 2507.601938 
L -1261.556757 2512.608865 
L -1266.025225 2517.615792 
L -1270.493694 2522.622719 
L -1274.962162 2527.629646 
L -1279.430631 2532.636573 
L -1283.899099 2537.643499 
L -1288.367568 2542.650426 
L -1292.836036 2547.657353 
L -1297.304505 2552.66428 
L -1301.772973 2557.671207 
L -1306.241441 2562.678134 
L -1310.70991 2567.685061 
L -1315.178378 2572.691988 
L -1319.646847 2577.698915 
L -1324.115315 2582.705842 
L -1328.583784 2587.712769 
L -1333.052252 2592.719696 
L -1337.520721 2597.726623 
L -1341.989189 2602.73355 
L -1346.457658 2607.740476 
L -1350.926126 2612.747403 
L -1355.394595 2617.75433 
L -1359.863063 2622.761257 
L -1364.331532 2627.768184 
L -1368.8 2632.775111 
L -1373.268468 2637.782038 
L -1377.736937 2642.788965 
L -1382.205405 2647.795892 
L -1386.673874 2652.802819 
L -1391.142342 2657.809746 
L -1395.610811 2662.816673 
L -1400.079279 2667.8236 
L -1404.547748 2672.830527 
L -1409.016216 2677.837453 
L -1413.484685 2682.84438 
L -1417.953153 2687.851307 
L -1422.421622 2692.858234 
L -1426.89009 2697.865161 
L -1431.358559 2702.872088 
L -1435.827027 2707.879015 
L -1440.295495 2712.885942 
L -1444.763964 2717.892869 
L -1449.232432 2722.899796 
L -1453.700901 2727.906723 
L -1458.169369 2732.91365 
L -1462.637838 2737.920577 
L -1467.106306 2742.927504 
L -1471.574775 2747.93443 
L -1476.043243 2752.941357 
L -1480.511712 2757.948284 
L -1484.98018 2762.955211 
L -1489.448649 2767.962138 
L -1493.917117 2772.969065 
L -1498.385586 2777.975992 
L -1502.854054 2782.982919 
L -1507.322523 2787.989846 
L -1511.790991 2792.996773 
L -1516.259459 2798.0037 
L -1520.727928 2803.010627 
L -1525.196396 2808.017554 
L -1529.664865 2813.02448 
L -1534.133333 2818.031407 
L -1538.601802 2823.038334 
L -1543.07027 2828.045261 
L -1547.538739 2833.052188 
L -1552.007207 2838.059115 
L -1556.475676 2843.066042 
L -1560.944144 2848.072969 
L -1565.412613 2853.079896 
L -1569.881081 2858.086823 
L -1574.34955 2863.09375 
L -1578.818018 2868.100677 
L -1583.286486 2873.107604 
L -1587.754955 2878.114531 
L -1592.223423 2883.121457 
L -1596.691892 2888.128384 
L -1601.16036 2893.135311 
L -1605.628829 2898.142238 
L -1610.097297 2903.149165 
L -1614.565766 2908.156092 
L -1619.034234 2913.163019 
L -1623.502703 2918.169946 
L -1627.971171 2923.176873 
L -1632.43964 2928.1838 
L -1636.908108 2933.190727 
L -1641.376577 2938.197654 
L -1645.845045 2943.204581 
L -1650.313514 2948.211508 
L -1654.781982 2953.218434 
L -1659.25045 2958.225361 
L -1663.718919 2963.232288 
L -1668.187387 2968.239215 
L -1672.655856 2973.246142 
L -1677.124324 2978.253069 
L -1681.592793 2983.259996 
L -1686.061261 2988.266923 
L -1690.52973 2993.27385 
L -1694.998198 2998.280777 
L -1699.466667 3003.287704 
L -1703.935135 3008.294631 
L -1708.403604 3013.301558 
L -1712.872072 3018.308484 
L -1717.340541 3023.315411 
L -1721.809009 3028.322338 
L -1726.277477 3033.329265 
L -1730.745946 3038.336192 
L -1735.214414 3043.343119 
L -1739.682883 3048.350046 
L -1744.151351 3053.356973 
L -1748.61982 3058.3639 
L -1753.088288 3063.370827 
L -1757.556757 3068.377754 
L -1762.025225 3073.384681 
L -1766.493694 3078.391608 
L -1770.962162 3083.398535 
L -1775.430631 3088.405461 
L -1779.899099 3093.412388 
L -1784.367568 3098.419315 
L -1788.836036 3103.426242 
L -1793.304505 3108.433169 
L -1797.772973 3113.440096 
L -1802.241441 3118.447023 
L -1806.70991 3123.45395 
L -1811.178378 3128.460877 
L -1815.646847 3133.467804 
L -1820.115315 3138.474731 
L -1824.583784 3143.481658 
L -1829.052252 3148.488585 
L -1833.520721 3153.495512 
L -1837.989189 3158.502438 
L -1842.457658 3163.509365 
L -1846.926126 3168.516292 
L -1851.394595 3173.523219 
L -1855.863063 3178.530146 
L -1860.331532 3183.537073 
L -1864.8 3188.544 
z
" clip-path="url(#pfdc9c430c8)" style="fill: #808080; fill-opacity: 0.5; stroke: #808080; stroke-opacity: 0.5"/>
   </g>
   <g id="matplotlib.axis_1">
    <g id="xtick_1">
     <g id="line2d_1">
      <path d="M 144 512.64 
L 144 69.12 
" clip-path="url(#pfdc9c430c8)" style="fill: none; stroke-dasharray: 5.12,1.28,0.8,1.28; stroke-dashoffset: 0; stroke: #808080; stroke-width: 0.8"/>
     </g>
     <g id="line2d_2">
      <defs>
       <path id="m7edba39f77" d="M 0 0 
L 0 3.5 
" style="stroke: #000000; stroke-width: 0.8"/>
      </defs>
      <g>
       <use xlink:href="#m7edba39f77" x="144" y="512.64" style="stroke: #000000; stroke-width: 0.8"/>
      </g>
     </g>
     <g id="text_1">
      <!-- 10 -->
      <g transform="translate(133.447656 527.238438) scale(0.1 -0.1)">
       <defs>
        <path id="DejaVuSans-2212" d="M 678 2272 
L 4684 2272 
L 4684 1741 
L 678 1741 
L 678 2272 
z
" transform="scale(0.015625)"/>
        <path id="DejaVuSans-31" d="M 794 531 
L 1825 531 
L 1825 4091 
L 703 3866 
L 703 4441 
L 1819 4666 
L 2450 4666 
L 2450 531 
L 3481 531 
L 3481 0 
L 794 0 
L 794 531 
z
" transform="scale(0.015625)"/>
        <path id="DejaVuSans-30" d="M 2034 4250 
Q 1547 4250 1301 3770 
Q 1056 3291 1056 2328 
Q 1056 1369 1301 889 
Q 1547 409 2034 409 
Q 2525 409 2770 889 
Q 3016 1369 3016 2328 
Q 3016 3291 2770 3770 
Q 2525 4250 2034 4250 
z
M 2034 4750 
Q 2819 4750 3233 4129 
Q 3647 3509 3647 2328 
Q 3647 1150 3233 529 
Q 2819 -91 2034 -91 
Q 1250 -91 836 529 
Q 422 1150 422 2328 
Q 422 3509 836 4129 
Q 1250 4750 2034 4750 
z
" transform="scale(0.015625)"/>
       </defs>
       <use xlink:href="#DejaVuSans-2212"/>
       <use xlink:href="#DejaVuSans-31" x="83.789062"/>
       <use xlink:href="#DejaVuSans-30" x="147.412109"/>
      </g>
     </g>
    </g>
    <g id="xtick_2">
     <g id="line2d_3">
      <path d="M 255.6 512.64 
L 255.6 69.12 
" clip-path="url(#pfdc9c430c8)" style="fill: none; stroke-dasharray: 5.12,1.28,0.8,1.28; stroke-dashoffset: 0; stroke: #808080; stroke-width: 0.8"/>
     </g>
     <g id="line2d_4">
      <g>
       <use xlink:href="#m7edba39f77" x="255.6" y="512.64" style="stroke: #000000; stroke-width: 0.8"/>
      </g>
     </g>
     <g id="text_2">
      <!-- 5 -->
      <g transform="translate(248.228906 527.238438) scale(0.1 -0.1)">
       <defs>
        <path id="DejaVuSans-35" d="M 691 4666 
L 3169 4666 
L 3169 4134 
L 1269 4134 
L 1269 2991 
Q 1406 3038 1543 3061 
Q 1681 3084 1819 3084 
Q 2600 3084 3056 2656 
Q 3513 2228 3513 1497 
Q 3513 744 3044 326 
Q 2575 -91 1722 -91 
Q 1428 -91 1123 -41 
Q 819 9 494 109 
L 494 744 
Q 775 591 1075 516 
Q 1375 441 1709 441 
Q 2250 441 2565 725 
Q 2881 1009 2881 1497 
Q 2881 1984 2565 2268 
Q 2250 2553 1709 2553 
Q 1456 2553 1204 2497 
Q 953 2441 691 2322 
L 691 4666 
z
" transform="scale(0.015625)"/>
       </defs>
       <use xlink:href="#DejaVuSans-2212"/>
       <use xlink:href="#DejaVuSans-35" x="83.789062"/>
      </g>
     </g>
    </g>
    <g id="xtick_3">
     <g id="line2d_5">
      <path d="M 367.2 512.64 
L 367.2 69.12 
" clip-path="url(#pfdc9c430c8)" style="fill: none; stroke-dasharray: 5.12,1.28,0.8,1.28; stroke-dashoffset: 0; stroke: #808080; stroke-width: 0.8"/>
     </g>
     <g id="line2d_6">
      <g>
       <use xlink:href="#m7edba39f77" x="367.2" y="512.64" style="stroke: #000000; stroke-width: 0.8"/>
      </g>
     </g>
     <g id="text_3">
      <!-- 0 -->
      <g transform="translate(364.01875 527.238438) scale(0.1 -0.1)">
       <use xlink:href="#DejaVuSans-30"/>
      </g>
     </g>
    </g>
    <g id="xtick_4">
     <g id="line2d_7">
      <path d="M 478.8 512.64 
L 478.8 69.12 
" clip-path="url(#pfdc9c430c8)" style="fill: none; stroke-dasharray: 5.12,1.28,0.8,1.28; stroke-dashoffset: 0; stroke: #808080; stroke-width: 0.8"/>
     </g>
     <g id="line2d_8">
      <g>
       <use xlink:href="#m7edba39f77" x="478.8" y="512.64" style="stroke: #000000; stroke-width: 0.8"/>
      </g>
     </g>
     <g id="text_4">
      <!-- 5 -->
      <g transform="translate(475.61875 527.238438) scale(0.1 -0.1)">
       <use xlink:href="#DejaVuSans-35"/>
      </g>
     </g>
    </g>
    <g id="xtick_5">
     <g id="line2d_9">
      <path d="M 590.4 512.64 
L 590.4 69.12 
" clip-path="url(#pfdc9c430c8)" style="fill: none; stroke-dasharray: 5.12,1.28,0.8,1.28; stroke-dashoffset: 0; stroke: #808080; stroke-width: 0.8"/>
     </g>
     <g id="line2d_10">
      <g>
       <use xlink:href="#m7edba39f77" x="590.4" y="512.64" style="stroke: #000000; stroke-width: 0.8"/>
      </g>
     </g>
     <g id="text_5">
      <!-- 10 -->
      <g transform="translate(584.0375 527.238438) scale(0.1 -0.1)">
       <use xlink:href="#DejaVuSans-31"/>
       <use xlink:href="#DejaVuSans-30" x="63.623047"/>
      </g>
     </g>
    </g>
    <g id="xtick_6">
     <g id="line2d_11">
      <path d="M 702 512.64 
L 702 69.12 
" clip-path="url(#pfdc9c430c8)" style="fill: none; stroke-dasharray: 5.12,1.28,0.8,1.28; stroke-dashoffset: 0; stroke: #808080; stroke-width: 0.8"/>
     </g>
     <g id="line2d_12">
      <g>
       <use xlink:href="#m7edba39f77" x="702" y="512.64" style="stroke: #000000; stroke-width: 0.8"/>
      </g>
     </g>
     <g id="text_6">
      <!-- 15 -->
      <g transform="translate(695.6375 527.238438) scale(0.1 -0.1)">
       <use xlink:href="#DejaVuSans-31"/>
       <use xlink:href="#DejaVuSans-35" x="63.623047"/>
      </g>
     </g>
    </g>
    <g id="xtick_7">
     <g id="line2d_13">
      <path d="M 813.6 512.64 
L 813.6 69.12 
" clip-path="url(#pfdc9c430c8)" style="fill: none; stroke-dasharray: 5.12,1.28,0.8,1.28; stroke-dashoffset: 0; stroke: #808080; stroke-width: 0.8"/>
     </g>
     <g id="line2d_14">
      <g>
       <use xlink:href="#m7edba39f77" x="813.6" y="512.64" style="stroke: #000000; stroke-width: 0.8"/>
      </g>
     </g>
     <g id="text_7">
      <!-- 20 -->
      <g transform="translate(807.2375 527.238438) scale(0.1 -0.1)">
       <defs>
        <path id="DejaVuSans-32" d="M 1228 531 
L 3431 531 
L 3431 0 
L 469 0 
L 469 531 
Q 828 903 1448 1529 
Q 2069 2156 2228 2338 
Q 2531 2678 2651 2914 
Q 2772 3150 2772 3378 
Q 2772 3750 2511 3984 
Q 2250 4219 1831 4219 
Q 1534 4219 1204 4116 
Q 875 4013 500 3803 
L 500 4441 
Q 881 4594 1212 4672 
Q 1544 4750 1819 4750 
Q 2544 4750 2975 4387 
Q 3406 4025 3406 3419 
Q 3406 3131 3298 2873 
Q 3191 2616 2906 2266 
Q 2828 2175 2409 1742 
Q 1991 1309 1228 531 
z
" transform="scale(0.015625)"/>
       </defs>
       <use xlink:href="#DejaVuSans-32"/>
       <use xlink:href="#DejaVuSans-30" x="63.623047"/>
      </g>
     </g>
    </g>
    <g id="xtick_8">
     <g id="line2d_15">
      <path d="M 925.2 512.64 
L 925.2 69.12 
" clip-path="url(#pfdc9c430c8)" style="fill: none; stroke-dasharray: 5.12,1.28,0.8,1.28; stroke-dashoffset: 0; stroke: #808080; stroke-width: 0.8"/>
     </g>
     <g id="line2d_16">
      <g>
       <use xlink:href="#m7edba39f77" x="925.2" y="512.64" style="stroke: #000000; stroke-width: 0.8"/>
      </g>
     </g>
     <g id="text_8">
      <!-- 25 -->
      <g transform="translate(918.8375 527.238438) scale(0.1 -0.1)">
       <use xlink:href="#DejaVuSans-32"/>
       <use xlink:href="#DejaVuSans-35" x="63.623047"/>
      </g>
     </g>
    </g>
    <g id="xtick_9">
     <g id="line2d_17">
      <path d="M 1036.8 512.64 
L 1036.8 69.12 
" clip-path="url(#pfdc9c430c8)" style="fill: none; stroke-dasharray: 5.12,1.28,0.8,1.28; stroke-dashoffset: 0; stroke: #808080; stroke-width: 0.8"/>
     </g>
     <g id="line2d_18">
      <g>
       <use xlink:href="#m7edba39f77" x="1036.8" y="512.64" style="stroke: #000000; stroke-width: 0.8"/>
      </g>
     </g>
     <g id="text_9">
      <!-- 30 -->
      <g transform="translate(1030.4375 527.238438) scale(0.1 -0.1)">
       <defs>
        <path id="DejaVuSans-33" d="M 2597 2516 
Q 3050 2419 3304 2112 
Q 3559 1806 3559 1356 
Q 3559 666 3084 287 
Q 2609 -91 1734 -91 
Q 1441 -91 1130 -33 
Q 819 25 488 141 
L 488 750 
Q 750 597 1062 519 
Q 1375 441 1716 441 
Q 2309 441 2620 675 
Q 2931 909 2931 1356 
Q 2931 1769 2642 2001 
Q 2353 2234 1838 2234 
L 1294 2234 
L 1294 2753 
L 1863 2753 
Q 2328 2753 2575 2939 
Q 2822 3125 2822 3475 
Q 2822 3834 2567 4026 
Q 2313 4219 1838 4219 
Q 1578 4219 1281 4162 
Q 984 4106 628 3988 
L 628 4550 
Q 988 4650 1302 4700 
Q 1616 4750 1894 4750 
Q 2613 4750 3031 4423 
Q 3450 4097 3450 3541 
Q 3450 3153 3228 2886 
Q 3006 2619 2597 2516 
z
" transform="scale(0.015625)"/>
       </defs>
       <use xlink:href="#DejaVuSans-33"/>
       <use xlink:href="#DejaVuSans-30" x="63.623047"/>
      </g>
     </g>
    </g>
    <g id="text_10">
     <!-- $x_1$ -->
     <g transform="translate(585.05 540.916563) scale(0.1 -0.1)">
      <defs>
       <path id="DejaVuSans-Oblique-78" d="M 3841 3500 
L 2234 1784 
L 3219 0 
L 2559 0 
L 1819 1388 
L 531 0 
L -166 0 
L 1556 1844 
L 641 3500 
L 1300 3500 
L 1972 2234 
L 3144 3500 
L 3841 3500 
z
" transform="scale(0.015625)"/>
      </defs>
      <use xlink:href="#DejaVuSans-Oblique-78" transform="translate(0 0.3125)"/>
      <use xlink:href="#DejaVuSans-31" transform="translate(59.179688 -16.09375) scale(0.7)"/>
     </g>
    </g>
   </g>
   <g id="matplotlib.axis_2">
    <g id="ytick_1">
     <g id="line2d_19">
      <path d="M 144 512.64 
L 1036.8 512.64 
" clip-path="url(#pfdc9c430c8)" style="fill: none; stroke-dasharray: 5.12,1.28,0.8,1.28; stroke-dashoffset: 0; stroke: #808080; stroke-width: 0.8"/>
     </g>
     <g id="line2d_20">
      <defs>
       <path id="mdae3b1451b" d="M 0 0 
L -3.5 0 
" style="stroke: #000000; stroke-width: 0.8"/>
      </defs>
      <g>
       <use xlink:href="#mdae3b1451b" x="144" y="512.64" style="stroke: #000000; stroke-width: 0.8"/>
      </g>
     </g>
     <g id="text_11">
      <!-- 0 -->
      <g transform="translate(130.6375 516.439219) scale(0.1 -0.1)">
       <use xlink:href="#DejaVuSans-30"/>
      </g>
     </g>
    </g>
    <g id="ytick_2">
     <g id="line2d_21">
      <path d="M 144 423.936 
L 1036.8 423.936 
" clip-path="url(#pfdc9c430c8)" style="fill: none; stroke-dasharray: 5.12,1.28,0.8,1.28; stroke-dashoffset: 0; stroke: #808080; stroke-width: 0.8"/>
     </g>
     <g id="line2d_22">
      <g>
       <use xlink:href="#mdae3b1451b" x="144" y="423.936" style="stroke: #000000; stroke-width: 0.8"/>
      </g>
     </g>
     <g id="text_12">
      <!-- 10 -->
      <g transform="translate(124.275 427.735219) scale(0.1 -0.1)">
       <use xlink:href="#DejaVuSans-31"/>
       <use xlink:href="#DejaVuSans-30" x="63.623047"/>
      </g>
     </g>
    </g>
    <g id="ytick_3">
     <g id="line2d_23">
      <path d="M 144 335.232 
L 1036.8 335.232 
" clip-path="url(#pfdc9c430c8)" style="fill: none; stroke-dasharray: 5.12,1.28,0.8,1.28; stroke-dashoffset: 0; stroke: #808080; stroke-width: 0.8"/>
     </g>
     <g id="line2d_24">
      <g>
       <use xlink:href="#mdae3b1451b" x="144" y="335.232" style="stroke: #000000; stroke-width: 0.8"/>
      </g>
     </g>
     <g id="text_13">
      <!-- 20 -->
      <g transform="translate(124.275 339.031219) scale(0.1 -0.1)">
       <use xlink:href="#DejaVuSans-32"/>
       <use xlink:href="#DejaVuSans-30" x="63.623047"/>
      </g>
     </g>
    </g>
    <g id="ytick_4">
     <g id="line2d_25">
      <path d="M 144 246.528 
L 1036.8 246.528 
" clip-path="url(#pfdc9c430c8)" style="fill: none; stroke-dasharray: 5.12,1.28,0.8,1.28; stroke-dashoffset: 0; stroke: #808080; stroke-width: 0.8"/>
     </g>
     <g id="line2d_26">
      <g>
       <use xlink:href="#mdae3b1451b" x="144" y="246.528" style="stroke: #000000; stroke-width: 0.8"/>
      </g>
     </g>
     <g id="text_14">
      <!-- 30 -->
      <g transform="translate(124.275 250.327219) scale(0.1 -0.1)">
       <use xlink:href="#DejaVuSans-33"/>
       <use xlink:href="#DejaVuSans-30" x="63.623047"/>
      </g>
     </g>
    </g>
    <g id="ytick_5">
     <g id="line2d_27">
      <path d="M 144 157.824 
L 1036.8 157.824 
" clip-path="url(#pfdc9c430c8)" style="fill: none; stroke-dasharray: 5.12,1.28,0.8,1.28; stroke-dashoffset: 0; stroke: #808080; stroke-width: 0.8"/>
     </g>
     <g id="line2d_28">
      <g>
       <use xlink:href="#mdae3b1451b" x="144" y="157.824" style="stroke: #000000; stroke-width: 0.8"/>
      </g>
     </g>
     <g id="text_15">
      <!-- 40 -->
      <g transform="translate(124.275 161.623219) scale(0.1 -0.1)">
       <defs>
        <path id="DejaVuSans-34" d="M 2419 4116 
L 825 1625 
L 2419 1625 
L 2419 4116 
z
M 2253 4666 
L 3047 4666 
L 3047 1625 
L 3713 1625 
L 3713 1100 
L 3047 1100 
L 3047 0 
L 2419 0 
L 2419 1100 
L 313 1100 
L 313 1709 
L 2253 4666 
z
" transform="scale(0.015625)"/>
       </defs>
       <use xlink:href="#DejaVuSans-34"/>
       <use xlink:href="#DejaVuSans-30" x="63.623047"/>
      </g>
     </g>
    </g>
    <g id="ytick_6">
     <g id="line2d_29">
      <path d="M 144 69.12 
L 1036.8 69.12 
" clip-path="url(#pfdc9c430c8)" style="fill: none; stroke-dasharray: 5.12,1.28,0.8,1.28; stroke-dashoffset: 0; stroke: #808080; stroke-width: 0.8"/>
     </g>
     <g id="line2d_30">
      <g>
       <use xlink:href="#mdae3b1451b" x="144" y="69.12" style="stroke: #000000; stroke-width: 0.8"/>
      </g>
     </g>
     <g id="text_16">
      <!-- 50 -->
      <g transform="translate(124.275 72.919219) scale(0.1 -0.1)">
       <use xlink:href="#DejaVuSans-35"/>
       <use xlink:href="#DejaVuSans-30" x="63.623047"/>
      </g>
     </g>
    </g>
    <g id="text_17">
     <!-- $x_2$ -->
     <g transform="translate(118.195312 296.23) rotate(-90) scale(0.1 -0.1)">
      <use xlink:href="#DejaVuSans-Oblique-78" transform="translate(0 0.3125)"/>
      <use xlink:href="#DejaVuSans-32" transform="translate(59.179688 -16.09375) scale(0.7)"/>
     </g>
    </g>
   </g>
   <g id="line2d_31">
    <path d="M -1 369.717161 
L 1153 536.488774 
L 1153 536.488774 
" clip-path="url(#pfdc9c430c8)" style="fill: none; stroke-dasharray: 5.55,2.4; stroke-dashoffset: 0; stroke: #bfbf00; stroke-width: 1.5"/>
   </g>
   <g id="line2d_32">
    <path d="M 47.551838 577 
L 1153 -0.632984 
L 1153 -0.632984 
" clip-path="url(#pfdc9c430c8)" style="fill: none; stroke-dasharray: 9.6,2.4,1.5,2.4; stroke-dashoffset: 0; stroke: #008000; stroke-width: 1.5"/>
   </g>
   <g id="line2d_33">
    <path d="M 465.891498 577 
L 981.731815 -1 
L 981.731815 -1 
" clip-path="url(#pfdc9c430c8)" style="fill: none; stroke-dasharray: 1.5,2.475; stroke-dashoffset: 0; stroke: #0000ff; stroke-width: 1.5"/>
   </g>
   <g id="line2d_34">
    <path d="M 347.779137 420.121372 
" clip-path="url(#pfdc9c430c8)" style="fill: none; stroke: #bfbf00; stroke-width: 1.5; stroke-linecap: square"/>
    <defs>
     <path id="m9662638177" d="M 0 3 
C 0.795609 3 1.55874 2.683901 2.12132 2.12132 
C 2.683901 1.55874 3 0.795609 3 0 
C 3 -0.795609 2.683901 -1.55874 2.12132 -2.12132 
C 1.55874 -2.683901 0.795609 -3 0 -3 
C -0.795609 -3 -1.55874 -2.683901 -2.12132 -2.12132 
C -2.683901 -1.55874 -3 -0.795609 -3 0 
C -3 0.795609 -2.683901 1.55874 -2.12132 2.12132 
C -1.55874 2.683901 -0.795609 3 0 3 
z
" style="stroke: #bfbf00"/>
    </defs>
    <g clip-path="url(#pfdc9c430c8)">
     <use xlink:href="#m9662638177" x="347.779137" y="420.121372" style="fill: #bfbf00; stroke: #bfbf00"/>
    </g>
   </g>
   <g id="line2d_35">
    <path d="M 831.456 167.38432 
" clip-path="url(#pfdc9c430c8)" style="fill: none; stroke: #008000; stroke-width: 1.5; stroke-linecap: square"/>
    <defs>
     <path id="m46e3dd1bd9" d="M 0 3 
C 0.795609 3 1.55874 2.683901 2.12132 2.12132 
C 2.683901 1.55874 3 0.795609 3 0 
C 3 -0.795609 2.683901 -1.55874 2.12132 -2.12132 
C 1.55874 -2.683901 0.795609 -3 0 -3 
C -0.795609 -3 -1.55874 -2.683901 -2.12132 -2.12132 
C -2.683901 -1.55874 -3 -0.795609 -3 0 
C -3 0.795609 -2.683901 1.55874 -2.12132 2.12132 
C -1.55874 2.683901 -0.795609 3 0 3 
z
" style="stroke: #008000"/>
    </defs>
    <g clip-path="url(#pfdc9c430c8)">
     <use xlink:href="#m46e3dd1bd9" x="831.456" y="167.38432" style="fill: #008000; stroke: #008000"/>
    </g>
   </g>
   <g id="line2d_36">
    <path d="M 576.411265 453.162402 
" clip-path="url(#pfdc9c430c8)" style="fill: none; stroke: #0000ff; stroke-width: 1.5; stroke-linecap: square"/>
    <defs>
     <path id="mde8b33cffa" d="M 0 3 
C 0.795609 3 1.55874 2.683901 2.12132 2.12132 
C 2.683901 1.55874 3 0.795609 3 0 
C 3 -0.795609 2.683901 -1.55874 2.12132 -2.12132 
C 1.55874 -2.683901 0.795609 -3 0 -3 
C -0.795609 -3 -1.55874 -2.683901 -2.12132 -2.12132 
C -2.683901 -1.55874 -3 -0.795609 -3 0 
C -3 0.795609 -2.683901 1.55874 -2.12132 2.12132 
C -1.55874 2.683901 -0.795609 3 0 3 
z
" style="stroke: #0000ff"/>
    </defs>
    <g clip-path="url(#pfdc9c430c8)">
     <use xlink:href="#mde8b33cffa" x="576.411265" y="453.162402" style="fill: #0000ff; stroke: #0000ff"/>
    </g>
   </g>
   <g id="patch_3">
    <path d="M 144 512.64 
L 144 69.12 
" style="fill: none; stroke: #000000; stroke-width: 0.8; stroke-linejoin: miter; stroke-linecap: square"/>
   </g>
   <g id="patch_4">
    <path d="M 1036.8 512.64 
L 1036.8 69.12 
" style="fill: none; stroke: #000000; stroke-width: 0.8; stroke-linejoin: miter; stroke-linecap: square"/>
   </g>
   <g id="patch_5">
    <path d="M 144 512.64 
L 1036.8 512.64 
" style="fill: none; stroke: #000000; stroke-width: 0.8; stroke-linejoin: miter; stroke-linecap: square"/>
   </g>
   <g id="patch_6">
    <path d="M 144 69.12 
L 1036.8 69.12 
" style="fill: none; stroke: #000000; stroke-width: 0.8; stroke-linejoin: miter; stroke-linecap: square"/>
   </g>
   <g id="text_18">
    <!-- $3.2x_1 + 8.8x_2 = 89$ -->
    <g transform="translate(635.04 459.4176) rotate(8.223232) scale(0.1 -0.1)">
     <defs>
      <path id="DejaVuSans-2e" d="M 684 794 
L 1344 794 
L 1344 0 
L 684 0 
L 684 794 
z
" transform="scale(0.015625)"/>
      <path id="DejaVuSans-2b" d="M 2944 4013 
L 2944 2272 
L 4684 2272 
L 4684 1741 
L 2944 1741 
L 2944 0 
L 2419 0 
L 2419 1741 
L 678 1741 
L 678 2272 
L 2419 2272 
L 2419 4013 
L 2944 4013 
z
" transform="scale(0.015625)"/>
      <path id="DejaVuSans-38" d="M 2034 2216 
Q 1584 2216 1326 1975 
Q 1069 1734 1069 1313 
Q 1069 891 1326 650 
Q 1584 409 2034 409 
Q 2484 409 2743 651 
Q 3003 894 3003 1313 
Q 3003 1734 2745 1975 
Q 2488 2216 2034 2216 
z
M 1403 2484 
Q 997 2584 770 2862 
Q 544 3141 544 3541 
Q 544 4100 942 4425 
Q 1341 4750 2034 4750 
Q 2731 4750 3128 4425 
Q 3525 4100 3525 3541 
Q 3525 3141 3298 2862 
Q 3072 2584 2669 2484 
Q 3125 2378 3379 2068 
Q 3634 1759 3634 1313 
Q 3634 634 3220 271 
Q 2806 -91 2034 -91 
Q 1263 -91 848 271 
Q 434 634 434 1313 
Q 434 1759 690 2068 
Q 947 2378 1403 2484 
z
M 1172 3481 
Q 1172 3119 1398 2916 
Q 1625 2713 2034 2713 
Q 2441 2713 2670 2916 
Q 2900 3119 2900 3481 
Q 2900 3844 2670 4047 
Q 2441 4250 2034 4250 
Q 1625 4250 1398 4047 
Q 1172 3844 1172 3481 
z
" transform="scale(0.015625)"/>
      <path id="DejaVuSans-3d" d="M 678 2906 
L 4684 2906 
L 4684 2381 
L 678 2381 
L 678 2906 
z
M 678 1631 
L 4684 1631 
L 4684 1100 
L 678 1100 
L 678 1631 
z
" transform="scale(0.015625)"/>
      <path id="DejaVuSans-39" d="M 703 97 
L 703 672 
Q 941 559 1184 500 
Q 1428 441 1663 441 
Q 2288 441 2617 861 
Q 2947 1281 2994 2138 
Q 2813 1869 2534 1725 
Q 2256 1581 1919 1581 
Q 1219 1581 811 2004 
Q 403 2428 403 3163 
Q 403 3881 828 4315 
Q 1253 4750 1959 4750 
Q 2769 4750 3195 4129 
Q 3622 3509 3622 2328 
Q 3622 1225 3098 567 
Q 2575 -91 1691 -91 
Q 1453 -91 1209 -44 
Q 966 3 703 97 
z
M 1959 2075 
Q 2384 2075 2632 2365 
Q 2881 2656 2881 3163 
Q 2881 3666 2632 3958 
Q 2384 4250 1959 4250 
Q 1534 4250 1286 3958 
Q 1038 3666 1038 3163 
Q 1038 2656 1286 2365 
Q 1534 2075 1959 2075 
z
" transform="scale(0.015625)"/>
     </defs>
     <use xlink:href="#DejaVuSans-33" transform="translate(0 0.78125)"/>
     <use xlink:href="#DejaVuSans-2e" transform="translate(63.623047 0.78125)"/>
     <use xlink:href="#DejaVuSans-32" transform="translate(89.910156 0.78125)"/>
     <use xlink:href="#DejaVuSans-Oblique-78" transform="translate(153.533203 0.78125)"/>
     <use xlink:href="#DejaVuSans-31" transform="translate(212.712891 -15.625) scale(0.7)"/>
     <use xlink:href="#DejaVuSans-2b" transform="translate(279.46582 0.78125)"/>
     <use xlink:href="#DejaVuSans-38" transform="translate(382.737305 0.78125)"/>
     <use xlink:href="#DejaVuSans-2e" transform="translate(446.360352 0.78125)"/>
     <use xlink:href="#DejaVuSans-38" transform="translate(475.522461 0.78125)"/>
     <use xlink:href="#DejaVuSans-Oblique-78" transform="translate(539.145508 0.78125)"/>
     <use xlink:href="#DejaVuSans-32" transform="translate(598.325195 -15.625) scale(0.7)"/>
     <use xlink:href="#DejaVuSans-3d" transform="translate(665.078125 0.78125)"/>
     <use xlink:href="#DejaVuSans-38" transform="translate(768.349609 0.78125)"/>
     <use xlink:href="#DejaVuSans-39" transform="translate(831.972656 0.78125)"/>
    </g>
   </g>
   <g id="text_19">
    <!-- $-14.2x_1 + 10.8x_2 = 125$ -->
    <g transform="translate(501.12 335.232) rotate(-27.588546) scale(0.1 -0.1)">
     <use xlink:href="#DejaVuSans-2212" transform="translate(0 0.78125)"/>
     <use xlink:href="#DejaVuSans-31" transform="translate(83.789062 0.78125)"/>
     <use xlink:href="#DejaVuSans-34" transform="translate(147.412109 0.78125)"/>
     <use xlink:href="#DejaVuSans-2e" transform="translate(211.035156 0.78125)"/>
     <use xlink:href="#DejaVuSans-32" transform="translate(237.322266 0.78125)"/>
     <use xlink:href="#DejaVuSans-Oblique-78" transform="translate(300.945312 0.78125)"/>
     <use xlink:href="#DejaVuSans-31" transform="translate(360.125 -15.625) scale(0.7)"/>
     <use xlink:href="#DejaVuSans-2b" transform="translate(426.87793 0.78125)"/>
     <use xlink:href="#DejaVuSans-31" transform="translate(530.149414 0.78125)"/>
     <use xlink:href="#DejaVuSans-30" transform="translate(593.772461 0.78125)"/>
     <use xlink:href="#DejaVuSans-2e" transform="translate(657.395508 0.78125)"/>
     <use xlink:href="#DejaVuSans-38" transform="translate(686.557617 0.78125)"/>
     <use xlink:href="#DejaVuSans-Oblique-78" transform="translate(750.180664 0.78125)"/>
     <use xlink:href="#DejaVuSans-32" transform="translate(809.360352 -15.625) scale(0.7)"/>
     <use xlink:href="#DejaVuSans-3d" transform="translate(876.113281 0.78125)"/>
     <use xlink:href="#DejaVuSans-31" transform="translate(979.384766 0.78125)"/>
     <use xlink:href="#DejaVuSans-32" transform="translate(1043.007812 0.78125)"/>
     <use xlink:href="#DejaVuSans-35" transform="translate(1106.630859 0.78125)"/>
    </g>
   </g>
   <g id="text_20">
    <!-- $20.3x_1 - 7.2x_2 = 142$ -->
    <g transform="translate(679.68 352.9728) rotate(-48.25245) scale(0.1 -0.1)">
     <defs>
      <path id="DejaVuSans-37" d="M 525 4666 
L 3525 4666 
L 3525 4397 
L 1831 0 
L 1172 0 
L 2766 4134 
L 525 4134 
L 525 4666 
z
" transform="scale(0.015625)"/>
     </defs>
     <use xlink:href="#DejaVuSans-32" transform="translate(0 0.78125)"/>
     <use xlink:href="#DejaVuSans-30" transform="translate(63.623047 0.78125)"/>
     <use xlink:href="#DejaVuSans-2e" transform="translate(127.246094 0.78125)"/>
     <use xlink:href="#DejaVuSans-33" transform="translate(159.033203 0.78125)"/>
     <use xlink:href="#DejaVuSans-Oblique-78" transform="translate(222.65625 0.78125)"/>
     <use xlink:href="#DejaVuSans-31" transform="translate(281.835938 -15.625) scale(0.7)"/>
     <use xlink:href="#DejaVuSans-2212" transform="translate(348.588867 0.78125)"/>
     <use xlink:href="#DejaVuSans-37" transform="translate(451.860352 0.78125)"/>
     <use xlink:href="#DejaVuSans-2e" transform="translate(515.483398 0.78125)"/>
     <use xlink:href="#DejaVuSans-32" transform="translate(541.770508 0.78125)"/>
     <use xlink:href="#DejaVuSans-Oblique-78" transform="translate(605.393555 0.78125)"/>
     <use xlink:href="#DejaVuSans-32" transform="translate(664.573242 -15.625) scale(0.7)"/>
     <use xlink:href="#DejaVuSans-3d" transform="translate(731.326172 0.78125)"/>
     <use xlink:href="#DejaVuSans-31" transform="translate(834.597656 0.78125)"/>
     <use xlink:href="#DejaVuSans-34" transform="translate(898.220703 0.78125)"/>
     <use xlink:href="#DejaVuSans-32" transform="translate(961.84375 0.78125)"/>
    </g>
   </g>
   <g id="patch_7">
    <path d="M 357.721974 411.578926 
Q 353.509134 415.198412 350.144325 418.089308 
" style="fill: none; stroke: #000000; stroke-linecap: round"/>
    <path d="M 354.481673 416.999627 
L 350.144325 418.089308 
L 351.874989 413.96562 
" style="fill: none; stroke: #000000; stroke-linecap: round"/>
   </g>
   <g id="text_21">
    <!-- Intersection $f_0$ and $f_1$ -->
    <g transform="translate(315 406.1952) scale(0.1 -0.1)">
     <defs>
      <path id="DejaVuSans-49" d="M 628 4666 
L 1259 4666 
L 1259 0 
L 628 0 
L 628 4666 
z
" transform="scale(0.015625)"/>
      <path id="DejaVuSans-6e" d="M 3513 2113 
L 3513 0 
L 2938 0 
L 2938 2094 
Q 2938 2591 2744 2837 
Q 2550 3084 2163 3084 
Q 1697 3084 1428 2787 
Q 1159 2491 1159 1978 
L 1159 0 
L 581 0 
L 581 3500 
L 1159 3500 
L 1159 2956 
Q 1366 3272 1645 3428 
Q 1925 3584 2291 3584 
Q 2894 3584 3203 3211 
Q 3513 2838 3513 2113 
z
" transform="scale(0.015625)"/>
      <path id="DejaVuSans-74" d="M 1172 4494 
L 1172 3500 
L 2356 3500 
L 2356 3053 
L 1172 3053 
L 1172 1153 
Q 1172 725 1289 603 
Q 1406 481 1766 481 
L 2356 481 
L 2356 0 
L 1766 0 
Q 1100 0 847 248 
Q 594 497 594 1153 
L 594 3053 
L 172 3053 
L 172 3500 
L 594 3500 
L 594 4494 
L 1172 4494 
z
" transform="scale(0.015625)"/>
      <path id="DejaVuSans-65" d="M 3597 1894 
L 3597 1613 
L 953 1613 
Q 991 1019 1311 708 
Q 1631 397 2203 397 
Q 2534 397 2845 478 
Q 3156 559 3463 722 
L 3463 178 
Q 3153 47 2828 -22 
Q 2503 -91 2169 -91 
Q 1331 -91 842 396 
Q 353 884 353 1716 
Q 353 2575 817 3079 
Q 1281 3584 2069 3584 
Q 2775 3584 3186 3129 
Q 3597 2675 3597 1894 
z
M 3022 2063 
Q 3016 2534 2758 2815 
Q 2500 3097 2075 3097 
Q 1594 3097 1305 2825 
Q 1016 2553 972 2059 
L 3022 2063 
z
" transform="scale(0.015625)"/>
      <path id="DejaVuSans-72" d="M 2631 2963 
Q 2534 3019 2420 3045 
Q 2306 3072 2169 3072 
Q 1681 3072 1420 2755 
Q 1159 2438 1159 1844 
L 1159 0 
L 581 0 
L 581 3500 
L 1159 3500 
L 1159 2956 
Q 1341 3275 1631 3429 
Q 1922 3584 2338 3584 
Q 2397 3584 2469 3576 
Q 2541 3569 2628 3553 
L 2631 2963 
z
" transform="scale(0.015625)"/>
      <path id="DejaVuSans-73" d="M 2834 3397 
L 2834 2853 
Q 2591 2978 2328 3040 
Q 2066 3103 1784 3103 
Q 1356 3103 1142 2972 
Q 928 2841 928 2578 
Q 928 2378 1081 2264 
Q 1234 2150 1697 2047 
L 1894 2003 
Q 2506 1872 2764 1633 
Q 3022 1394 3022 966 
Q 3022 478 2636 193 
Q 2250 -91 1575 -91 
Q 1294 -91 989 -36 
Q 684 19 347 128 
L 347 722 
Q 666 556 975 473 
Q 1284 391 1588 391 
Q 1994 391 2212 530 
Q 2431 669 2431 922 
Q 2431 1156 2273 1281 
Q 2116 1406 1581 1522 
L 1381 1569 
Q 847 1681 609 1914 
Q 372 2147 372 2553 
Q 372 3047 722 3315 
Q 1072 3584 1716 3584 
Q 2034 3584 2315 3537 
Q 2597 3491 2834 3397 
z
" transform="scale(0.015625)"/>
      <path id="DejaVuSans-63" d="M 3122 3366 
L 3122 2828 
Q 2878 2963 2633 3030 
Q 2388 3097 2138 3097 
Q 1578 3097 1268 2742 
Q 959 2388 959 1747 
Q 959 1106 1268 751 
Q 1578 397 2138 397 
Q 2388 397 2633 464 
Q 2878 531 3122 666 
L 3122 134 
Q 2881 22 2623 -34 
Q 2366 -91 2075 -91 
Q 1284 -91 818 406 
Q 353 903 353 1747 
Q 353 2603 823 3093 
Q 1294 3584 2113 3584 
Q 2378 3584 2631 3529 
Q 2884 3475 3122 3366 
z
" transform="scale(0.015625)"/>
      <path id="DejaVuSans-69" d="M 603 3500 
L 1178 3500 
L 1178 0 
L 603 0 
L 603 3500 
z
M 603 4863 
L 1178 4863 
L 1178 4134 
L 603 4134 
L 603 4863 
z
" transform="scale(0.015625)"/>
      <path id="DejaVuSans-6f" d="M 1959 3097 
Q 1497 3097 1228 2736 
Q 959 2375 959 1747 
Q 959 1119 1226 758 
Q 1494 397 1959 397 
Q 2419 397 2687 759 
Q 2956 1122 2956 1747 
Q 2956 2369 2687 2733 
Q 2419 3097 1959 3097 
z
M 1959 3584 
Q 2709 3584 3137 3096 
Q 3566 2609 3566 1747 
Q 3566 888 3137 398 
Q 2709 -91 1959 -91 
Q 1206 -91 779 398 
Q 353 888 353 1747 
Q 353 2609 779 3096 
Q 1206 3584 1959 3584 
z
" transform="scale(0.015625)"/>
      <path id="DejaVuSans-20" transform="scale(0.015625)"/>
      <path id="DejaVuSans-Oblique-66" d="M 3059 4863 
L 2969 4384 
L 2419 4384 
Q 2106 4384 1964 4261 
Q 1822 4138 1753 3809 
L 1691 3500 
L 2638 3500 
L 2553 3053 
L 1606 3053 
L 1013 0 
L 434 0 
L 1031 3053 
L 481 3053 
L 563 3500 
L 1113 3500 
L 1159 3744 
Q 1278 4363 1576 4613 
Q 1875 4863 2516 4863 
L 3059 4863 
z
" transform="scale(0.015625)"/>
      <path id="DejaVuSans-61" d="M 2194 1759 
Q 1497 1759 1228 1600 
Q 959 1441 959 1056 
Q 959 750 1161 570 
Q 1363 391 1709 391 
Q 2188 391 2477 730 
Q 2766 1069 2766 1631 
L 2766 1759 
L 2194 1759 
z
M 3341 1997 
L 3341 0 
L 2766 0 
L 2766 531 
Q 2569 213 2275 61 
Q 1981 -91 1556 -91 
Q 1019 -91 701 211 
Q 384 513 384 1019 
Q 384 1609 779 1909 
Q 1175 2209 1959 2209 
L 2766 2209 
L 2766 2266 
Q 2766 2663 2505 2880 
Q 2244 3097 1772 3097 
Q 1472 3097 1187 3025 
Q 903 2953 641 2809 
L 641 3341 
Q 956 3463 1253 3523 
Q 1550 3584 1831 3584 
Q 2591 3584 2966 3190 
Q 3341 2797 3341 1997 
z
" transform="scale(0.015625)"/>
      <path id="DejaVuSans-64" d="M 2906 2969 
L 2906 4863 
L 3481 4863 
L 3481 0 
L 2906 0 
L 2906 525 
Q 2725 213 2448 61 
Q 2172 -91 1784 -91 
Q 1150 -91 751 415 
Q 353 922 353 1747 
Q 353 2572 751 3078 
Q 1150 3584 1784 3584 
Q 2172 3584 2448 3432 
Q 2725 3281 2906 2969 
z
M 947 1747 
Q 947 1113 1208 752 
Q 1469 391 1925 391 
Q 2381 391 2643 752 
Q 2906 1113 2906 1747 
Q 2906 2381 2643 2742 
Q 2381 3103 1925 3103 
Q 1469 3103 1208 2742 
Q 947 2381 947 1747 
z
" transform="scale(0.015625)"/>
     </defs>
     <use xlink:href="#DejaVuSans-49" transform="translate(0 0.015625)"/>
     <use xlink:href="#DejaVuSans-6e" transform="translate(29.492188 0.015625)"/>
     <use xlink:href="#DejaVuSans-74" transform="translate(92.871094 0.015625)"/>
     <use xlink:href="#DejaVuSans-65" transform="translate(132.080078 0.015625)"/>
     <use xlink:href="#DejaVuSans-72" transform="translate(193.603516 0.015625)"/>
     <use xlink:href="#DejaVuSans-73" transform="translate(234.716797 0.015625)"/>
     <use xlink:href="#DejaVuSans-65" transform="translate(286.816406 0.015625)"/>
     <use xlink:href="#DejaVuSans-63" transform="translate(348.339844 0.015625)"/>
     <use xlink:href="#DejaVuSans-74" transform="translate(403.320312 0.015625)"/>
     <use xlink:href="#DejaVuSans-69" transform="translate(442.529297 0.015625)"/>
     <use xlink:href="#DejaVuSans-6f" transform="translate(470.3125 0.015625)"/>
     <use xlink:href="#DejaVuSans-6e" transform="translate(531.494141 0.015625)"/>
     <use xlink:href="#DejaVuSans-20" transform="translate(594.873047 0.015625)"/>
     <use xlink:href="#DejaVuSans-Oblique-66" transform="translate(626.660156 0.015625)"/>
     <use xlink:href="#DejaVuSans-30" transform="translate(661.865234 -16.390625) scale(0.7)"/>
     <use xlink:href="#DejaVuSans-20" transform="translate(709.135742 0.015625)"/>
     <use xlink:href="#DejaVuSans-61" transform="translate(740.922852 0.015625)"/>
     <use xlink:href="#DejaVuSans-6e" transform="translate(802.202148 0.015625)"/>
     <use xlink:href="#DejaVuSans-64" transform="translate(865.581055 0.015625)"/>
     <use xlink:href="#DejaVuSans-20" transform="translate(929.057617 0.015625)"/>
     <use xlink:href="#DejaVuSans-Oblique-66" transform="translate(960.844727 0.015625)"/>
     <use xlink:href="#DejaVuSans-31" transform="translate(996.049805 -16.390625) scale(0.7)"/>
    </g>
   </g>
   <g id="patch_8">
    <path d="M 848.817225 182.397725 
Q 840.892139 175.544377 833.812735 169.422345 
" style="fill: none; stroke: #000000; stroke-linecap: round"/>
    <path d="M 835.530116 173.551583 
L 833.812735 169.422345 
L 838.146553 170.525983 
" style="fill: none; stroke: #000000; stroke-linecap: round"/>
   </g>
   <g id="text_22">
    <!-- Intersection $f_1$ and $f_2$ -->
    <g transform="translate(806.04 193.3056) scale(0.1 -0.1)">
     <use xlink:href="#DejaVuSans-49" transform="translate(0 0.015625)"/>
     <use xlink:href="#DejaVuSans-6e" transform="translate(29.492188 0.015625)"/>
     <use xlink:href="#DejaVuSans-74" transform="translate(92.871094 0.015625)"/>
     <use xlink:href="#DejaVuSans-65" transform="translate(132.080078 0.015625)"/>
     <use xlink:href="#DejaVuSans-72" transform="translate(193.603516 0.015625)"/>
     <use xlink:href="#DejaVuSans-73" transform="translate(234.716797 0.015625)"/>
     <use xlink:href="#DejaVuSans-65" transform="translate(286.816406 0.015625)"/>
     <use xlink:href="#DejaVuSans-63" transform="translate(348.339844 0.015625)"/>
     <use xlink:href="#DejaVuSans-74" transform="translate(403.320312 0.015625)"/>
     <use xlink:href="#DejaVuSans-69" transform="translate(442.529297 0.015625)"/>
     <use xlink:href="#DejaVuSans-6f" transform="translate(470.3125 0.015625)"/>
     <use xlink:href="#DejaVuSans-6e" transform="translate(531.494141 0.015625)"/>
     <use xlink:href="#DejaVuSans-20" transform="translate(594.873047 0.015625)"/>
     <use xlink:href="#DejaVuSans-Oblique-66" transform="translate(626.660156 0.015625)"/>
     <use xlink:href="#DejaVuSans-31" transform="translate(661.865234 -16.390625) scale(0.7)"/>
     <use xlink:href="#DejaVuSans-20" transform="translate(709.135742 0.015625)"/>
     <use xlink:href="#DejaVuSans-61" transform="translate(740.922852 0.015625)"/>
     <use xlink:href="#DejaVuSans-6e" transform="translate(802.202148 0.015625)"/>
     <use xlink:href="#DejaVuSans-64" transform="translate(865.581055 0.015625)"/>
     <use xlink:href="#DejaVuSans-20" transform="translate(929.057617 0.015625)"/>
     <use xlink:href="#DejaVuSans-Oblique-66" transform="translate(960.844727 0.015625)"/>
     <use xlink:href="#DejaVuSans-32" transform="translate(996.049805 -16.390625) scale(0.7)"/>
    </g>
   </g>
   <g id="patch_9">
    <path d="M 553.698937 429.461212 
Q 564.363362 440.589951 574.254237 450.91146 
" style="fill: none; stroke: #000000; stroke-linecap: round"/>
    <path d="M 572.930715 446.639658 
L 574.254237 450.91146 
L 570.042683 449.407196 
" style="fill: none; stroke: #000000; stroke-linecap: round"/>
   </g>
   <g id="text_23">
    <!-- Intersection $f_0$ and $f_2$ -->
    <g transform="translate(493.56 423.936) scale(0.1 -0.1)">
     <use xlink:href="#DejaVuSans-49" transform="translate(0 0.015625)"/>
     <use xlink:href="#DejaVuSans-6e" transform="translate(29.492188 0.015625)"/>
     <use xlink:href="#DejaVuSans-74" transform="translate(92.871094 0.015625)"/>
     <use xlink:href="#DejaVuSans-65" transform="translate(132.080078 0.015625)"/>
     <use xlink:href="#DejaVuSans-72" transform="translate(193.603516 0.015625)"/>
     <use xlink:href="#DejaVuSans-73" transform="translate(234.716797 0.015625)"/>
     <use xlink:href="#DejaVuSans-65" transform="translate(286.816406 0.015625)"/>
     <use xlink:href="#DejaVuSans-63" transform="translate(348.339844 0.015625)"/>
     <use xlink:href="#DejaVuSans-74" transform="translate(403.320312 0.015625)"/>
     <use xlink:href="#DejaVuSans-69" transform="translate(442.529297 0.015625)"/>
     <use xlink:href="#DejaVuSans-6f" transform="translate(470.3125 0.015625)"/>
     <use xlink:href="#DejaVuSans-6e" transform="translate(531.494141 0.015625)"/>
     <use xlink:href="#DejaVuSans-20" transform="translate(594.873047 0.015625)"/>
     <use xlink:href="#DejaVuSans-Oblique-66" transform="translate(626.660156 0.015625)"/>
     <use xlink:href="#DejaVuSans-30" transform="translate(661.865234 -16.390625) scale(0.7)"/>
     <use xlink:href="#DejaVuSans-20" transform="translate(709.135742 0.015625)"/>
     <use xlink:href="#DejaVuSans-61" transform="translate(740.922852 0.015625)"/>
     <use xlink:href="#DejaVuSans-6e" transform="translate(802.202148 0.015625)"/>
     <use xlink:href="#DejaVuSans-64" transform="translate(865.581055 0.015625)"/>
     <use xlink:href="#DejaVuSans-20" transform="translate(929.057617 0.015625)"/>
     <use xlink:href="#DejaVuSans-Oblique-66" transform="translate(960.844727 0.015625)"/>
     <use xlink:href="#DejaVuSans-32" transform="translate(996.049805 -16.390625) scale(0.7)"/>
    </g>
   </g>
   <g id="text_24">
    <!-- All lines in one figure -->
    <g transform="translate(527.331563 63.12) scale(0.12 -0.12)">
     <defs>
      <path id="DejaVuSans-41" d="M 2188 4044 
L 1331 1722 
L 3047 1722 
L 2188 4044 
z
M 1831 4666 
L 2547 4666 
L 4325 0 
L 3669 0 
L 3244 1197 
L 1141 1197 
L 716 0 
L 50 0 
L 1831 4666 
z
" transform="scale(0.015625)"/>
      <path id="DejaVuSans-6c" d="M 603 4863 
L 1178 4863 
L 1178 0 
L 603 0 
L 603 4863 
z
" transform="scale(0.015625)"/>
      <path id="DejaVuSans-66" d="M 2375 4863 
L 2375 4384 
L 1825 4384 
Q 1516 4384 1395 4259 
Q 1275 4134 1275 3809 
L 1275 3500 
L 2222 3500 
L 2222 3053 
L 1275 3053 
L 1275 0 
L 697 0 
L 697 3053 
L 147 3053 
L 147 3500 
L 697 3500 
L 697 3744 
Q 697 4328 969 4595 
Q 1241 4863 1831 4863 
L 2375 4863 
z
" transform="scale(0.015625)"/>
      <path id="DejaVuSans-67" d="M 2906 1791 
Q 2906 2416 2648 2759 
Q 2391 3103 1925 3103 
Q 1463 3103 1205 2759 
Q 947 2416 947 1791 
Q 947 1169 1205 825 
Q 1463 481 1925 481 
Q 2391 481 2648 825 
Q 2906 1169 2906 1791 
z
M 3481 434 
Q 3481 -459 3084 -895 
Q 2688 -1331 1869 -1331 
Q 1566 -1331 1297 -1286 
Q 1028 -1241 775 -1147 
L 775 -588 
Q 1028 -725 1275 -790 
Q 1522 -856 1778 -856 
Q 2344 -856 2625 -561 
Q 2906 -266 2906 331 
L 2906 616 
Q 2728 306 2450 153 
Q 2172 0 1784 0 
Q 1141 0 747 490 
Q 353 981 353 1791 
Q 353 2603 747 3093 
Q 1141 3584 1784 3584 
Q 2172 3584 2450 3431 
Q 2728 3278 2906 2969 
L 2906 3500 
L 3481 3500 
L 3481 434 
z
" transform="scale(0.015625)"/>
      <path id="DejaVuSans-75" d="M 544 1381 
L 544 3500 
L 1119 3500 
L 1119 1403 
Q 1119 906 1312 657 
Q 1506 409 1894 409 
Q 2359 409 2629 706 
Q 2900 1003 2900 1516 
L 2900 3500 
L 3475 3500 
L 3475 0 
L 2900 0 
L 2900 538 
Q 2691 219 2414 64 
Q 2138 -91 1772 -91 
Q 1169 -91 856 284 
Q 544 659 544 1381 
z
M 1991 3584 
L 1991 3584 
z
" transform="scale(0.015625)"/>
     </defs>
     <use xlink:href="#DejaVuSans-41"/>
     <use xlink:href="#DejaVuSans-6c" x="68.408203"/>
     <use xlink:href="#DejaVuSans-6c" x="96.191406"/>
     <use xlink:href="#DejaVuSans-20" x="123.974609"/>
     <use xlink:href="#DejaVuSans-6c" x="155.761719"/>
     <use xlink:href="#DejaVuSans-69" x="183.544922"/>
     <use xlink:href="#DejaVuSans-6e" x="211.328125"/>
     <use xlink:href="#DejaVuSans-65" x="274.707031"/>
     <use xlink:href="#DejaVuSans-73" x="336.230469"/>
     <use xlink:href="#DejaVuSans-20" x="388.330078"/>
     <use xlink:href="#DejaVuSans-69" x="420.117188"/>
     <use xlink:href="#DejaVuSans-6e" x="447.900391"/>
     <use xlink:href="#DejaVuSans-20" x="511.279297"/>
     <use xlink:href="#DejaVuSans-6f" x="543.066406"/>
     <use xlink:href="#DejaVuSans-6e" x="604.248047"/>
     <use xlink:href="#DejaVuSans-65" x="667.626953"/>
     <use xlink:href="#DejaVuSans-20" x="729.150391"/>
     <use xlink:href="#DejaVuSans-66" x="760.9375"/>
     <use xlink:href="#DejaVuSans-69" x="796.142578"/>
     <use xlink:href="#DejaVuSans-67" x="823.925781"/>
     <use xlink:href="#DejaVuSans-75" x="887.402344"/>
     <use xlink:href="#DejaVuSans-72" x="950.78125"/>
     <use xlink:href="#DejaVuSans-65" x="989.644531"/>
    </g>
   </g>
   <g id="legend_1">
    <g id="patch_10">
     <path d="M 151 121.154375 
L 200.685937 121.154375 
Q 202.685937 121.154375 202.685937 119.154375 
L 202.685937 76.12 
Q 202.685937 74.12 200.685937 74.12 
L 151 74.12 
Q 149 74.12 149 76.12 
L 149 119.154375 
Q 149 121.154375 151 121.154375 
z
" style="fill: #ffffff; opacity: 0.8; stroke: #cccccc; stroke-linejoin: miter"/>
    </g>
    <g id="line2d_37">
     <path d="M 153 82.218438 
L 163 82.218438 
L 173 82.218438 
" style="fill: none; stroke-dasharray: 5.55,2.4; stroke-dashoffset: 0; stroke: #bfbf00; stroke-width: 1.5"/>
    </g>
    <g id="text_25">
     <!-- f[0] -->
     <g transform="translate(181 85.718438) scale(0.1 -0.1)">
      <defs>
       <path id="DejaVuSans-5b" d="M 550 4863 
L 1875 4863 
L 1875 4416 
L 1125 4416 
L 1125 -397 
L 1875 -397 
L 1875 -844 
L 550 -844 
L 550 4863 
z
" transform="scale(0.015625)"/>
       <path id="DejaVuSans-5d" d="M 1947 4863 
L 1947 -844 
L 622 -844 
L 622 -397 
L 1369 -397 
L 1369 4416 
L 622 4416 
L 622 4863 
L 1947 4863 
z
" transform="scale(0.015625)"/>
      </defs>
      <use xlink:href="#DejaVuSans-66"/>
      <use xlink:href="#DejaVuSans-5b" x="35.205078"/>
      <use xlink:href="#DejaVuSans-30" x="74.21875"/>
      <use xlink:href="#DejaVuSans-5d" x="137.841797"/>
     </g>
    </g>
    <g id="line2d_38">
     <path d="M 153 96.896563 
L 163 96.896563 
L 173 96.896563 
" style="fill: none; stroke-dasharray: 9.6,2.4,1.5,2.4; stroke-dashoffset: 0; stroke: #008000; stroke-width: 1.5"/>
    </g>
    <g id="text_26">
     <!-- f[1] -->
     <g transform="translate(181 100.396563) scale(0.1 -0.1)">
      <use xlink:href="#DejaVuSans-66"/>
      <use xlink:href="#DejaVuSans-5b" x="35.205078"/>
      <use xlink:href="#DejaVuSans-31" x="74.21875"/>
      <use xlink:href="#DejaVuSans-5d" x="137.841797"/>
     </g>
    </g>
    <g id="line2d_39">
     <path d="M 153 111.574688 
L 163 111.574688 
L 173 111.574688 
" style="fill: none; stroke-dasharray: 1.5,2.475; stroke-dashoffset: 0; stroke: #0000ff; stroke-width: 1.5"/>
    </g>
    <g id="text_27">
     <!-- f[2] -->
     <g transform="translate(181 115.074688) scale(0.1 -0.1)">
      <use xlink:href="#DejaVuSans-66"/>
      <use xlink:href="#DejaVuSans-5b" x="35.205078"/>
      <use xlink:href="#DejaVuSans-32" x="74.21875"/>
      <use xlink:href="#DejaVuSans-5d" x="137.841797"/>
     </g>
    </g>
   </g>
  </g>
 </g>
 <defs>
  <clipPath id="pfdc9c430c8">
   <rect x="144" y="69.12" width="892.8" height="443.52"/>
  </clipPath>
 </defs>
</svg>
